# Blender v3.5.0 OBJ File: 'wheel.blend'
# www.blender.org
o Cube
v -0.000000 0.058554 -0.294372
v -0.000000 0.166748 -0.249556
v -0.000000 0.249556 -0.166748
v -0.000000 0.294372 -0.058554
v -0.000000 0.294372 0.058554
v -0.000000 0.249556 0.166748
v -0.000000 0.166748 0.249556
v -0.000000 0.058554 0.294372
v -0.000000 -0.058554 0.294372
v 0.000000 -0.166748 0.249556
v 0.000000 -0.249556 0.166748
v 0.000000 -0.294372 0.058554
v 0.000000 -0.294372 -0.058554
v 0.000000 -0.249556 -0.166748
v 0.000000 -0.166748 -0.249556
v -0.000000 -0.058554 -0.294372
v -0.134525 0.055535 -0.037107
v -0.134525 0.037107 -0.055535
v -0.134525 0.065508 -0.013030
v -0.134525 0.065508 0.013030
v -0.134525 0.055535 0.037107
v -0.134525 0.037107 0.055535
v -0.134525 0.013030 0.065508
v -0.134525 -0.013030 0.065508
v -0.134525 -0.037107 0.055535
v -0.134525 -0.055535 0.037107
v -0.134525 -0.065508 0.013030
v -0.134525 -0.065508 -0.013030
v -0.134525 -0.055535 -0.037107
v -0.134525 -0.037107 -0.055535
v -0.134525 -0.013030 -0.065508
v -0.134525 0.013030 -0.065508
v -0.140091 0.249556 -0.166748
v -0.140091 0.166748 -0.249556
v -0.140091 0.294372 -0.058554
v -0.140091 0.294372 0.058554
v -0.140091 0.249556 0.166748
v -0.140091 0.166748 0.249556
v -0.140091 0.058554 0.294372
v -0.140091 -0.058554 0.294372
v -0.140091 -0.166748 0.249556
v -0.140091 -0.249556 0.166748
v -0.140091 -0.294372 0.058554
v -0.140091 -0.294372 -0.058554
v -0.140091 -0.249556 -0.166748
v -0.140091 -0.166748 -0.249556
v -0.140091 -0.058554 -0.294372
v -0.140091 0.058554 -0.294372
v -0.140091 0.159697 -0.106706
v -0.140091 0.106706 -0.159697
v -0.140091 0.188376 -0.037470
v -0.140091 0.188376 0.037470
v -0.140091 0.159697 0.106706
v -0.140091 0.106706 0.159697
v -0.140091 0.037470 0.188376
v -0.140091 -0.037470 0.188376
v -0.140091 -0.106706 0.159697
v -0.140091 -0.159697 0.106706
v -0.140091 -0.188376 0.037470
v -0.140091 -0.188376 -0.037470
v -0.140091 -0.159697 -0.106706
v -0.140091 -0.106706 -0.159697
v -0.140091 -0.037470 -0.188376
v -0.140091 0.037470 -0.188376
v -0.123333 0.129255 -0.086366
v -0.123333 0.086366 -0.129255
v -0.123333 0.152467 -0.030328
v -0.123333 0.152467 0.030328
v -0.123333 0.129255 0.086366
v -0.123333 0.086366 0.129255
v -0.123333 0.030328 0.152467
v -0.123333 -0.030328 0.152467
v -0.123333 -0.086366 0.129255
v -0.123333 -0.129255 0.086366
v -0.123333 -0.152467 0.030328
v -0.123333 -0.152467 -0.030328
v -0.123333 -0.129255 -0.086366
v -0.123333 -0.086366 -0.129255
v -0.123333 -0.030328 -0.152467
v -0.123333 0.030328 -0.152467
vt 0.000000 0.000000
vt 0.000000 0.000000
vt 0.000000 0.000000
vt 0.000000 0.000000
vt 0.000000 0.000000
vt 0.000000 0.000000
vt 0.000000 0.000000
vt 0.000000 0.000000
vt 0.000000 0.000000
vt 0.000000 0.000000
vt 0.000000 0.000000
vt 0.000000 0.000000
vt 0.000000 0.000000
vt 0.000000 0.000000
vt 0.000000 0.000000
vt 0.000000 0.000000
vt 0.000000 0.000000
vt 0.000000 0.000000
vt 0.000000 0.000000
vt 0.000000 0.000000
vt 0.000000 0.000000
vt 0.000000 0.000000
vt 0.000000 0.000000
vt 0.000000 0.000000
vt 0.000000 0.000000
vt 0.000000 0.000000
vt 0.000000 0.000000
vt 0.000000 0.000000
vt 0.000000 0.000000
vt 0.000000 0.000000
vt 0.000000 0.000000
vt 0.000000 0.000000
vt 0.000000 0.000000
vt 0.000000 0.000000
vt 0.000000 0.000000
vt 0.000000 0.000000
vt 0.000000 0.000000
vt 0.000000 0.000000
vt 0.000000 0.000000
vt 0.000000 0.000000
vt 0.000000 0.000000
vt 0.000000 0.000000
vt 0.000000 0.000000
vt 0.000000 0.000000
vt 0.000000 0.000000
vt 0.000000 0.000000
vt 0.000000 0.000000
vt 0.000000 0.000000
vt 0.000000 0.000000
vt 0.000000 0.000000
vt 0.000000 0.000000
vt 0.000000 0.000000
vt 0.000000 0.000000
vt 0.000000 0.000000
vt 0.000000 0.000000
vt 0.000000 0.000000
vt 0.000000 0.000000
vt 0.000000 0.000000
vt 0.000000 0.000000
vt 0.000000 0.000000
vt 0.000000 0.000000
vt 0.000000 0.000000
vt 0.000000 0.000000
vt 0.000000 0.000000
vt 0.000000 0.000000
vt 0.000000 0.000000
vt 0.000000 0.000000
vt 0.000000 0.000000
vt 0.000000 0.000000
vt 0.000000 0.000000
vt 0.000000 0.000000
vt 0.000000 0.000000
vt 0.000000 0.000000
vt 0.000000 0.000000
vt 0.000000 0.000000
vt 0.000000 0.000000
vt 0.000000 0.000000
vt 0.000000 0.000000
vt 0.000000 0.000000
vt 0.000000 0.000000
vn 1.0000 0.0000 -0.0000
vn -1.0000 -0.0000 -0.0000
vn 0.0000 -0.3827 -0.9239
vn 0.0000 0.0000 1.0000
vn 0.0000 0.0000 -1.0000
vn 0.0000 -0.3827 0.9239
vn -0.0000 0.7071 -0.7071
vn 0.0000 0.3827 -0.9239
vn 0.0000 -0.7071 0.7071
vn -0.0000 0.9239 -0.3827
vn 0.0000 -0.9239 0.3827
vn 0.0000 1.0000 0.0000
vn 0.0000 -1.0000 0.0000
vn -0.0000 0.9239 0.3827
vn 0.0000 -0.9239 -0.3827
vn -0.0000 0.7071 0.7071
vn 0.0000 -0.7071 -0.7071
vn 0.0000 0.3827 0.9239
vn -0.9062 -0.2990 0.2990
vn -0.9062 -0.3907 0.1618
vn -0.9062 -0.4229 0.0000
vn -0.9062 -0.3907 -0.1618
vn -0.9062 -0.2990 -0.2990
vn -0.9062 -0.1618 -0.3907
vn -0.9062 0.0000 -0.4229
vn -0.9062 0.1618 -0.3907
vn -0.9062 0.2990 -0.2990
vn -0.9062 0.3907 -0.1618
vn -0.9062 0.4229 0.0000
vn -0.9062 0.3907 0.1618
vn -0.9062 0.2990 0.2990
vn -0.9062 0.1618 0.3907
vn -0.9062 0.0000 0.4229
vn -0.9062 -0.1618 0.3907
vn -0.9918 0.0903 -0.0903
vn -0.9918 0.1179 -0.0489
vn -0.9918 0.1277 0.0000
vn -0.9918 0.1179 0.0489
vn -0.9918 0.0903 0.0903
vn -0.9918 0.0489 0.1179
vn -0.9918 0.0000 0.1277
vn -0.9918 -0.0489 0.1179
vn -0.9918 -0.0903 0.0903
vn -0.9918 -0.1179 0.0489
vn -0.9918 -0.1277 -0.0000
vn -0.9918 -0.1179 -0.0489
vn -0.9918 -0.0903 -0.0903
vn -0.9918 -0.0489 -0.1179
vn -0.9918 0.0000 -0.1277
vn -0.9918 0.0489 -0.1179
s off
f 2/1/1 3/2/1 4/3/1 5/4/1 6/5/1 7/6/1 8/7/1 9/8/1 10/9/1 11/10/1 12/11/1 13/12/1 14/13/1 15/14/1 16/15/1 1/16/1
f 18/17/2 32/18/2 31/19/2 30/20/2 29/21/2 28/22/2 27/23/2 26/24/2 25/25/2 24/26/2 23/27/2 22/28/2 21/29/2 20/30/2 19/31/2 17/32/2
f 16/15/3 15/14/3 46/33/3 47/34/3
f 9/8/4 8/7/4 39/35/4 40/36/4
f 1/16/5 16/15/5 47/34/5 48/37/5
f 10/9/6 9/8/6 40/36/6 41/38/6
f 3/2/7 2/1/7 34/39/7 33/40/7
f 2/1/8 1/16/8 48/37/8 34/39/8
f 11/10/9 10/9/9 41/38/9 42/41/9
f 4/3/10 3/2/10 33/40/10 35/42/10
f 12/11/11 11/10/11 42/41/11 43/43/11
f 5/4/12 4/3/12 35/42/12 36/44/12
f 13/12/13 12/11/13 43/43/13 44/45/13
f 6/5/14 5/4/14 36/44/14 37/46/14
f 14/13/15 13/12/15 44/45/15 45/47/15
f 7/6/16 6/5/16 37/46/16 38/48/16
f 15/14/17 14/13/17 45/47/17 46/33/17
f 8/7/18 7/6/18 38/48/18 39/35/18
f 50/49/2 49/50/2 33/40/2 34/39/2
f 49/50/2 51/51/2 35/42/2 33/40/2
f 51/51/2 52/52/2 36/44/2 35/42/2
f 52/52/2 53/53/2 37/46/2 36/44/2
f 53/53/2 54/54/2 38/48/2 37/46/2
f 54/54/2 55/55/2 39/35/2 38/48/2
f 55/55/2 56/56/2 40/36/2 39/35/2
f 56/56/2 57/57/2 41/38/2 40/36/2
f 57/57/2 58/58/2 42/41/2 41/38/2
f 58/58/2 59/59/2 43/43/2 42/41/2
f 59/59/2 60/60/2 44/45/2 43/43/2
f 60/60/2 61/61/2 45/47/2 44/45/2
f 61/61/2 62/62/2 46/33/2 45/47/2
f 62/62/2 63/63/2 47/34/2 46/33/2
f 63/63/2 64/64/2 48/37/2 47/34/2
f 64/64/2 50/49/2 34/39/2 48/37/2
f 66/65/19 65/66/19 49/50/19 50/49/19
f 65/66/20 67/67/20 51/51/20 49/50/20
f 67/67/21 68/68/21 52/52/21 51/51/21
f 68/68/22 69/69/22 53/53/22 52/52/22
f 69/69/23 70/70/23 54/54/23 53/53/23
f 70/70/24 71/71/24 55/55/24 54/54/24
f 71/71/25 72/72/25 56/56/25 55/55/25
f 72/72/26 73/73/26 57/57/26 56/56/26
f 73/73/27 74/74/27 58/58/27 57/57/27
f 74/74/28 75/75/28 59/59/28 58/58/28
f 75/75/29 76/76/29 60/60/29 59/59/29
f 76/76/30 77/77/30 61/61/30 60/60/30
f 77/77/31 78/78/31 62/62/31 61/61/31
f 78/78/32 79/79/32 63/63/32 62/62/32
f 79/79/33 80/80/33 64/64/33 63/63/33
f 80/80/34 66/65/34 50/49/34 64/64/34
f 18/17/35 17/32/35 65/66/35 66/65/35
f 17/32/36 19/31/36 67/67/36 65/66/36
f 19/31/37 20/30/37 68/68/37 67/67/37
f 20/30/38 21/29/38 69/69/38 68/68/38
f 21/29/39 22/28/39 70/70/39 69/69/39
f 22/28/40 23/27/40 71/71/40 70/70/40
f 23/27/41 24/26/41 72/72/41 71/71/41
f 24/26/42 25/25/42 73/73/42 72/72/42
f 25/25/43 26/24/43 74/74/43 73/73/43
f 26/24/44 27/23/44 75/75/44 74/74/44
f 27/23/45 28/22/45 76/76/45 75/75/45
f 28/22/46 29/21/46 77/77/46 76/76/46
f 29/21/47 30/20/47 78/78/47 77/77/47
f 30/20/48 31/19/48 79/79/48 78/78/48
f 31/19/49 32/18/49 80/80/49 79/79/49
f 32/18/50 18/17/50 66/65/50 80/80/50
