# Blender 3.5.0
# www.blender.org
o Cube
v 0.611682 0.786178 -0.602028
v 0.394660 -0.995171 -0.502212
v 0.611682 0.783687 0.500225
v 0.394660 -0.999794 0.399390
v -0.440351 0.781431 -0.602028
v -0.098807 -0.999794 0.399390
v -0.440351 0.778940 0.500225
v -0.098807 -0.995171 -0.502212
v 0.611682 0.824719 -0.602028
v 0.611682 0.822228 0.500225
v -0.440351 0.819973 -0.602028
v -0.440351 0.817481 0.500225
v 0.648786 0.824975 -0.640903
v 0.648786 0.822307 0.539100
v -0.477454 0.819893 -0.640903
v -0.477454 0.817226 0.539100
v 0.648786 0.773881 -0.640903
v 0.648786 0.771213 0.539100
v -0.477454 0.768799 -0.640903
v -0.477454 0.766132 0.539100
v -0.289723 -0.682015 -0.502212
v -0.289723 -0.686639 0.399390
v -0.193578 -0.700373 0.399390
v -0.193578 -0.695750 -0.502212
v -0.120783 -0.808376 -0.502212
v -0.120783 -0.813000 0.399390
v -0.396855 -0.703991 -0.502212
v -0.396855 -0.708614 0.399390
v -0.343289 -0.697626 0.399390
v -0.241650 -0.693506 0.399390
v -0.157181 -0.752063 -0.502212
v -0.241650 -0.688883 -0.502212
v -0.109795 -0.901774 -0.502212
v -0.157181 -0.756687 0.399390
v -0.109795 -0.906397 0.399390
v -0.343289 -0.693003 -0.502212
v -0.098807 -0.996327 -0.425323
v -0.370072 -0.703120 0.399390
v -0.396855 -0.705147 -0.425323
v -0.265686 -0.690072 0.399390
v -0.138982 -0.780220 -0.502212
v -0.217614 -0.692316 -0.502212
v -0.289723 -0.683171 -0.425323
v -0.104301 -0.948472 -0.502212
v -0.175379 -0.728530 0.399390
v -0.193578 -0.696906 -0.425323
v -0.115289 -0.859698 0.399390
v -0.120783 -0.809532 -0.425323
v -0.316506 -0.687509 -0.502212
v -0.098807 -0.998639 0.315538
v -0.316506 -0.692132 0.399390
v -0.396855 -0.707458 0.315538
v -0.217614 -0.696940 0.399390
v -0.175379 -0.723907 -0.502212
v -0.265686 -0.685449 -0.502212
v -0.289723 -0.685483 0.315538
v -0.115289 -0.855075 -0.502212
v -0.138982 -0.784843 0.399390
v -0.193578 -0.699218 0.315538
v -0.104301 -0.953096 0.399390
v -0.120783 -0.811844 0.315538
v -0.370072 -0.698497 -0.502212
v -0.109795 -0.902929 -0.425323
v -0.109795 -0.905241 0.315538
v -0.157181 -0.753219 -0.425323
v -0.157181 -0.755531 0.315538
v -0.343289 -0.694159 -0.425323
v -0.343289 -0.696471 0.315538
v -0.241650 -0.690038 -0.425323
v -0.241650 -0.692350 0.315538
v -0.217614 -0.695784 0.315538
v -0.217614 -0.693472 -0.425323
v -0.265686 -0.686605 -0.425323
v -0.316506 -0.690977 0.315538
v -0.316506 -0.688665 -0.425323
v -0.370072 -0.699653 -0.425323
v -0.138982 -0.783687 0.315538
v -0.138982 -0.781376 -0.425323
v -0.175379 -0.725062 -0.425323
v -0.104301 -0.951940 0.315538
v -0.104301 -0.949628 -0.425323
v -0.115289 -0.856231 -0.425323
v -0.115289 -0.858542 0.315538
v -0.175379 -0.727374 0.315538
v -0.370072 -0.701965 0.315538
v -0.265686 -0.688916 0.315538
v -0.273228 -0.724037 0.327528
v -0.299946 -0.726668 0.327528
v -0.325637 -0.734461 0.327528
v -0.349315 -0.747117 0.327528
v -0.370068 -0.764149 0.327528
v -0.387100 -0.784902 0.327528
v -0.399755 -0.808579 0.327528
v -0.407549 -0.834270 0.327528
v -0.410180 -0.860988 0.327528
v -0.407549 -0.887707 0.327528
v -0.399755 -0.913398 0.327528
v -0.387100 -0.937075 0.327528
v -0.370068 -0.957828 0.327528
v -0.349315 -0.974860 0.327528
v -0.325637 -0.987516 0.327528
v -0.299946 -0.995309 0.327528
v -0.273228 -0.997940 0.327528
v -0.246510 -0.995309 0.327528
v -0.220819 -0.987516 0.327528
v -0.197142 -0.974860 0.327528
v -0.176389 -0.957828 0.327528
v -0.159357 -0.937075 0.327528
v -0.146701 -0.913398 0.327528
v -0.138908 -0.887707 0.327528
v -0.136276 -0.860988 0.327528
v -0.138908 -0.834270 0.327528
v -0.146701 -0.808579 0.327528
v -0.159357 -0.784902 0.327528
v -0.176389 -0.764149 0.327528
v -0.197142 -0.747117 0.327528
v -0.220819 -0.734461 0.327528
v -0.246510 -0.726668 0.327528
v -0.273228 -0.724037 0.415343
v -0.299946 -0.726668 0.415343
v -0.325637 -0.734461 0.415343
v -0.349315 -0.747117 0.415343
v -0.370068 -0.764149 0.415343
v -0.387100 -0.784902 0.415343
v -0.399755 -0.808579 0.415343
v -0.407549 -0.834270 0.415343
v -0.410180 -0.860988 0.415343
v -0.407549 -0.887707 0.415343
v -0.399755 -0.913398 0.415343
v -0.387100 -0.937075 0.415343
v -0.370068 -0.957828 0.415343
v -0.349315 -0.974860 0.415343
v -0.325637 -0.987516 0.415343
v -0.299946 -0.995309 0.415343
v -0.273228 -0.997940 0.415343
v -0.246510 -0.995309 0.415343
v -0.220819 -0.987516 0.415343
v -0.197142 -0.974860 0.415343
v -0.176389 -0.957828 0.415343
v -0.159357 -0.937075 0.415343
v -0.146701 -0.913398 0.415343
v -0.138908 -0.887707 0.415343
v -0.136276 -0.860988 0.415343
v -0.138908 -0.834270 0.415343
v -0.146701 -0.808579 0.415343
v -0.159357 -0.784902 0.415343
v -0.176389 -0.764149 0.415343
v -0.197142 -0.747117 0.415343
v -0.220819 -0.734461 0.415343
v -0.246510 -0.726668 0.415343
v -0.273228 -0.997940 -0.434759
v -0.299946 -0.995309 -0.434759
v -0.325637 -0.987516 -0.434759
v -0.349315 -0.974860 -0.434759
v -0.370068 -0.957828 -0.434759
v -0.387100 -0.937075 -0.434759
v -0.399755 -0.913398 -0.434759
v -0.407549 -0.887707 -0.434759
v -0.410180 -0.860988 -0.434759
v -0.407549 -0.834270 -0.434759
v -0.399755 -0.808579 -0.434759
v -0.387100 -0.784902 -0.434759
v -0.370068 -0.764149 -0.434759
v -0.349315 -0.747117 -0.434759
v -0.325637 -0.734461 -0.434759
v -0.299946 -0.726668 -0.434759
v -0.273228 -0.724037 -0.434759
v -0.246510 -0.726668 -0.434759
v -0.220819 -0.734461 -0.434759
v -0.197142 -0.747117 -0.434759
v -0.176389 -0.764149 -0.434759
v -0.159357 -0.784902 -0.434759
v -0.146701 -0.808579 -0.434759
v -0.138908 -0.834270 -0.434759
v -0.136276 -0.860988 -0.434759
v -0.138908 -0.887707 -0.434759
v -0.146701 -0.913398 -0.434759
v -0.159357 -0.937075 -0.434759
v -0.176389 -0.957828 -0.434759
v -0.197142 -0.974860 -0.434759
v -0.220819 -0.987516 -0.434759
v -0.246510 -0.995309 -0.434759
v -0.273228 -0.997940 -0.522575
v -0.299946 -0.995309 -0.522575
v -0.325637 -0.987516 -0.522575
v -0.349315 -0.974860 -0.522575
v -0.370068 -0.957828 -0.522575
v -0.387100 -0.937075 -0.522575
v -0.399755 -0.913398 -0.522575
v -0.407549 -0.887707 -0.522575
v -0.410180 -0.860988 -0.522575
v -0.407549 -0.834270 -0.522575
v -0.399755 -0.808579 -0.522575
v -0.387100 -0.784902 -0.522575
v -0.370068 -0.764149 -0.522575
v -0.349315 -0.747117 -0.522575
v -0.325637 -0.734461 -0.522575
v -0.299946 -0.726668 -0.522575
v -0.273228 -0.724037 -0.522575
v -0.246510 -0.726668 -0.522575
v -0.220819 -0.734461 -0.522575
v -0.197142 -0.747117 -0.522575
v -0.176389 -0.764149 -0.522575
v -0.159357 -0.784902 -0.522575
v -0.146701 -0.808579 -0.522575
v -0.138908 -0.834270 -0.522575
v -0.136276 -0.860988 -0.522575
v -0.138908 -0.887707 -0.522575
v -0.146701 -0.913398 -0.522575
v -0.159357 -0.937075 -0.522575
v -0.176389 -0.957828 -0.522575
v -0.197142 -0.974860 -0.522575
v -0.220819 -0.987516 -0.522575
v -0.246510 -0.995309 -0.522575
vn -0.9996 -0.0292 -0.0001
vn 0.9927 -0.1209 -0.0004
vn -0.0000 -0.0000 -1.0000
vn -0.0000 -0.0000 1.0000
vn -1.0000 -0.0000 -0.0000
vn 1.0000 -0.0000 -0.0000
vn -0.0045 1.0000 0.0023
vn -0.1414 -0.9899 -0.0136
vn 0.2009 -0.9795 -0.0135
vn -0.8398 -0.5428 -0.0075
vn -0.9931 -0.1168 -0.0016
vn -0.0000 -1.0000 -0.0051
vn -0.0092 -0.0592 -0.9982
vn -0.0093 -0.0597 0.9982
vn -0.1414 -0.9898 -0.0149
vn 0.2009 -0.9795 -0.0147
vn -0.8398 -0.5428 -0.0082
vn -0.9931 -0.1168 -0.0018
vn -0.6988 -0.7153 -0.0022
vn 0.7730 -0.6344 -0.0000
vn -0.9952 0.0980 -0.0000
vn 0.8819 -0.4714 -0.0000
vn -0.9952 -0.0980 -0.0000
vn 0.9569 -0.2903 -0.0000
vn -0.9569 -0.2903 -0.0000
vn 0.9952 -0.0980 -0.0000
vn -0.8819 -0.4714 -0.0000
vn 0.9952 0.0980 -0.0000
vn -0.7730 -0.6344 -0.0000
vn 0.9569 0.2903 -0.0000
vn -0.6344 -0.7730 -0.0000
vn 0.8819 0.4714 -0.0000
vn -0.4714 -0.8819 -0.0000
vn -0.0980 0.9952 -0.0000
vn 0.7730 0.6344 -0.0000
vn -0.2903 -0.9569 -0.0000
vn -0.2903 0.9569 -0.0000
vn 0.6344 0.7730 -0.0000
vn -0.0980 -0.9952 -0.0000
vn -0.4714 0.8819 -0.0000
vn 0.4714 0.8819 -0.0000
vn 0.0980 -0.9952 -0.0000
vn -0.6344 0.7730 -0.0000
vn 0.2903 0.9569 -0.0000
vn 0.2903 -0.9569 -0.0000
vn -0.7730 0.6344 -0.0000
vn 0.0980 0.9952 -0.0000
vn 0.4714 -0.8819 -0.0000
vn -0.8819 0.4714 -0.0000
vn 0.6344 -0.7730 -0.0000
vn -0.9569 0.2903 -0.0000
vt 0.625000 0.500000
vt 0.375000 0.500000
vt 0.625000 0.750000
vt 0.375000 0.750000
vt 0.625000 0.250000
vt 0.375000 0.750000
vt 0.625000 0.000000
vt 0.625000 1.000000
vt 0.375000 0.500000
vt 0.625000 0.500000
vt 0.625000 0.750000
vt 0.625000 0.250000
vt 0.625000 0.000000
vt 0.625000 1.000000
vt 0.625000 0.500000
vt 0.625000 0.750000
vt 0.625000 0.250000
vt 0.625000 0.000000
vt 0.625000 1.000000
vt 0.625000 0.500000
vt 0.625000 0.750000
vt 0.625000 0.250000
vt 0.625000 1.000000
vt 0.375000 0.500000
vt 0.375000 0.750000
vt 0.375000 0.750000
vt 0.375000 0.500000
vt 0.375000 0.500000
vt 0.375000 0.750000
vt 0.375000 0.500000
vt 0.375000 0.750000
vt 0.375000 0.750000
vt 0.375000 0.750000
vt 0.375000 0.500000
vt 0.375000 0.500000
vt 0.375000 0.500000
vt 0.375000 0.750000
vt 0.375000 0.750000
vt 0.375000 0.500000
vt 0.375000 0.562500
vt 0.375000 0.750000
vt 0.375000 0.562500
vt 0.375000 0.750000
vt 0.375000 0.500000
vt 0.375000 0.500000
vt 0.375000 0.562500
vt 0.375000 0.500000
vt 0.375000 0.750000
vt 0.375000 0.562500
vt 0.375000 0.750000
vt 0.375000 0.562500
vt 0.375000 0.500000
vt 0.375000 0.687500
vt 0.375000 0.750000
vt 0.375000 0.687500
vt 0.375000 0.750000
vt 0.375000 0.500000
vt 0.375000 0.500000
vt 0.375000 0.687500
vt 0.375000 0.500000
vt 0.375000 0.750000
vt 0.375000 0.687500
vt 0.375000 0.750000
vt 0.375000 0.687500
vt 0.375000 0.500000
vt 0.375000 0.562500
vt 0.375000 0.687500
vt 0.375000 0.562500
vt 0.375000 0.687500
vt 0.375000 0.562500
vt 0.375000 0.687500
vt 0.375000 0.562500
vt 0.375000 0.687500
vt 0.375000 0.687500
vt 0.375000 0.562500
vt 0.375000 0.562500
vt 0.375000 0.687500
vt 0.375000 0.562500
vt 0.375000 0.562500
vt 0.375000 0.687500
vt 0.375000 0.562500
vt 0.375000 0.562500
vt 0.375000 0.687500
vt 0.375000 0.562500
vt 0.375000 0.562500
vt 0.375000 0.687500
vt 0.375000 0.687500
vt 0.375000 0.687500
vt 0.375000 0.687500
vt 0.000000 0.000000
vt 0.000000 0.000000
vt 0.000000 0.000000
vt 0.000000 0.000000
vt 0.000000 0.000000
vt 0.000000 0.000000
vt 0.000000 0.000000
vt 0.000000 0.000000
vt 0.000000 0.000000
vt 0.000000 0.000000
vt 0.000000 0.000000
vt 0.000000 0.000000
vt 0.000000 0.000000
vt 0.000000 0.000000
vt 0.000000 0.000000
vt 0.000000 0.000000
vt 0.000000 0.000000
vt 0.000000 0.000000
vt 0.000000 0.000000
vt 0.000000 0.000000
vt 0.000000 0.000000
vt 0.000000 0.000000
vt 0.000000 0.000000
vt 0.000000 0.000000
vt 0.000000 0.000000
vt 0.000000 0.000000
vt 0.000000 0.000000
vt 0.000000 0.000000
vt 0.000000 0.000000
vt 0.000000 0.000000
vt 0.000000 0.000000
vt 0.000000 0.000000
vt 0.000000 0.000000
vt 0.000000 0.000000
vt 0.000000 0.000000
vt 0.000000 0.000000
vt 0.000000 0.000000
vt 0.000000 0.000000
vt 0.000000 0.000000
vt 0.000000 0.000000
vt 0.000000 0.000000
vt 0.000000 0.000000
vt 0.000000 0.000000
vt 0.000000 0.000000
vt 0.000000 0.000000
vt 0.000000 0.000000
vt 0.000000 0.000000
vt 0.000000 0.000000
vt 0.000000 0.000000
vt 0.000000 0.000000
vt 0.000000 0.000000
vt 0.000000 0.000000
vt 0.000000 0.000000
vt 0.000000 0.000000
vt 0.000000 0.000000
vt 0.000000 0.000000
vt 0.000000 0.000000
vt 0.000000 0.000000
vt 0.000000 0.000000
vt 0.000000 0.000000
vt 0.000000 0.000000
vt 0.000000 0.000000
vt 0.000000 0.000000
vt 0.000000 0.000000
vt 0.000000 0.000000
vt 0.000000 0.000000
vt 0.000000 0.000000
vt 0.000000 0.000000
vt 0.000000 0.000000
vt 0.000000 0.000000
vt 0.000000 0.000000
vt 0.000000 0.000000
vt 0.000000 0.000000
vt 0.000000 0.000000
vt 0.000000 0.000000
vt 0.000000 0.000000
vt 0.000000 0.000000
vt 0.000000 0.000000
vt 0.000000 0.000000
vt 0.000000 0.000000
vt 0.000000 0.000000
vt 0.000000 0.000000
vt 0.000000 0.000000
vt 0.000000 0.000000
vt 0.000000 0.000000
vt 0.000000 0.000000
vt 0.000000 0.000000
vt 0.000000 0.000000
vt 0.000000 0.000000
vt 0.000000 0.000000
vt 0.000000 0.000000
vt 0.000000 0.000000
vt 0.000000 0.000000
vt 0.000000 0.000000
vt 0.000000 0.000000
vt 0.000000 0.000000
vt 0.000000 0.000000
vt 0.000000 0.000000
vt 0.000000 0.000000
vt 0.000000 0.000000
vt 0.000000 0.000000
vt 0.000000 0.000000
vt 0.000000 0.000000
vt 0.000000 0.000000
vt 0.000000 0.000000
vt 0.000000 0.000000
vt 0.000000 0.000000
vt 0.000000 0.000000
vt 0.000000 0.000000
vt 0.000000 0.000000
vt 0.000000 0.000000
vt 0.000000 0.000000
vt 0.000000 0.000000
vt 0.000000 0.000000
vt 0.000000 0.000000
vt 0.000000 0.000000
vt 0.000000 0.000000
vt 0.000000 0.000000
vt 0.000000 0.000000
vt 0.000000 0.000000
vt 0.000000 0.000000
vt 0.000000 0.000000
vt 0.000000 0.000000
vt 0.000000 0.000000
vt 0.000000 0.000000
vt 0.000000 0.000000
vt 0.000000 0.000000
vt 0.000000 0.000000
s 0
f 7/8/1 5/5/1 27/30/1 39/42/1 52/55/1 28/31/1
f 2/2/2 1/1/2 3/3/2 4/4/2
f 1/1/3 5/5/3 11/12/3 9/10/3
f 7/8/4 3/3/4 10/11/4 12/14/4
f 5/5/5 7/7/5 12/13/5 11/12/5
f 3/3/6 1/1/6 9/10/6 10/11/6
f 9/10/7 13/15/7 15/17/7 11/12/7
f 10/11/7 14/16/7 13/15/7 9/10/7
f 11/12/7 15/17/7 16/18/7 12/13/7
f 12/14/7 16/19/7 14/16/7 10/11/7
f 14/16/6 18/21/6 17/20/6 13/15/6
f 16/19/4 20/23/4 18/21/4 14/16/4
f 13/15/3 17/20/3 19/22/3 15/17/3
f 15/17/5 19/22/5 20/23/5 16/19/5
f 86/89/8 40/43/8 22/25/8 56/59/8
f 85/88/9 38/41/9 28/31/9 52/55/9
f 84/87/10 45/48/10 23/26/10 59/62/10
f 83/86/11 47/50/11 26/29/11 61/64/11
f 4/4/12 6/6/12 50/53/12 37/40/12 8/9/12 2/2/12
f 2/2/13 8/9/13 44/47/13 33/36/13 57/60/13 25/28/13 41/44/13 31/34/13 54/57/13 24/27/13 42/45/13 32/35/13 55/58/13 21/24/13 49/52/13 36/39/13 62/65/13 27/30/13 5/5/13 1/1/13
f 4/4/14 3/3/14 7/8/14 28/31/14 38/41/14 29/32/14 51/54/14 22/25/14 40/43/14 30/33/14 53/56/14 23/26/14 45/48/14 34/37/14 58/61/14 26/29/14 47/50/14 35/38/14 60/63/14 6/6/14
f 80/83/11 60/63/11 35/38/11 64/67/11
f 77/80/10 58/61/10 34/37/10 66/69/10
f 74/77/9 51/54/9 29/32/9 68/71/9
f 71/74/8 53/56/8 30/33/8 70/73/8
f 59/62/8 23/26/8 53/56/8 71/74/8
f 42/45/15 72/75/15 69/72/15 32/35/15
f 24/27/15 46/49/15 72/75/15 42/45/15
f 55/58/15 73/76/15 43/46/15 21/24/15
f 32/35/15 69/72/15 73/76/15 55/58/15
f 56/59/9 22/25/9 51/54/9 74/77/9
f 49/52/16 75/78/16 67/70/16 36/39/16
f 21/24/16 43/46/16 75/78/16 49/52/16
f 62/65/16 76/79/16 39/42/16 27/30/16
f 36/39/16 67/70/16 76/79/16 62/65/16
f 61/64/10 26/29/10 58/61/10 77/80/10
f 41/44/17 78/81/17 65/68/17 31/34/17
f 25/28/17 48/51/17 78/81/17 41/44/17
f 54/57/17 79/82/17 46/49/17 24/27/17
f 31/34/17 65/68/17 79/82/17 54/57/17
f 50/53/11 6/6/11 60/63/11 80/83/11
f 44/47/18 81/84/18 63/66/18 33/36/18
f 8/9/18 37/40/18 81/84/18 44/47/18
f 57/60/18 82/85/18 48/51/18 25/28/18
f 33/36/18 63/66/18 82/85/18 57/60/18
f 64/67/11 35/38/11 47/50/11 83/86/11
f 66/69/10 34/37/10 45/48/10 84/87/10
f 68/71/9 29/32/9 38/41/9 85/88/9
f 72/75/4 69/72/4 73/76/4 43/46/4 75/78/4 67/70/4 76/79/4 39/42/4 37/40/4 81/84/4 63/66/4 82/85/4 48/51/4 78/81/4 65/68/4 79/82/4 46/49/4
f 70/73/8 30/33/8 40/43/8 86/89/8
f 71/74/4 70/73/4 86/89/4 56/59/4 74/77/4 68/71/4 85/88/4 52/55/4 50/53/4 80/83/4 64/67/4 83/86/4 61/64/4 77/80/4 66/69/4 84/87/4 59/62/4
f 50/53/19 52/55/19 39/42/19 37/40/19
f 108/111/20 140/143/20 139/142/20 107/110/20
f 95/98/21 127/130/21 126/129/21 94/97/21
f 109/112/22 141/144/22 140/143/22 108/111/22
f 96/99/23 128/131/23 127/130/23 95/98/23
f 110/113/24 142/145/24 141/144/24 109/112/24
f 97/100/25 129/132/25 128/131/25 96/99/25
f 111/114/26 143/146/26 142/145/26 110/113/26
f 98/101/27 130/133/27 129/132/27 97/100/27
f 112/115/28 144/147/28 143/146/28 111/114/28
f 99/102/29 131/134/29 130/133/29 98/101/29
f 113/116/30 145/148/30 144/147/30 112/115/30
f 100/103/31 132/135/31 131/134/31 99/102/31
f 114/117/32 146/149/32 145/148/32 113/116/32
f 101/104/33 133/136/33 132/135/33 100/103/33
f 88/91/34 120/123/34 119/122/34 87/90/34
f 115/118/35 147/150/35 146/149/35 114/117/35
f 102/105/36 134/137/36 133/136/36 101/104/36
f 89/92/37 121/124/37 120/123/37 88/91/37
f 116/119/38 148/151/38 147/150/38 115/118/38
f 103/106/39 135/138/39 134/137/39 102/105/39
f 90/93/40 122/125/40 121/124/40 89/92/40
f 117/120/41 149/152/41 148/151/41 116/119/41
f 104/107/42 136/139/42 135/138/42 103/106/42
f 91/94/43 123/126/43 122/125/43 90/93/43
f 118/121/44 150/153/44 149/152/44 117/120/44
f 105/108/45 137/140/45 136/139/45 104/107/45
f 92/95/46 124/127/46 123/126/46 91/94/46
f 87/90/47 119/122/47 150/153/47 118/121/47
f 106/109/48 138/141/48 137/140/48 105/108/48
f 93/96/49 125/128/49 124/127/49 92/95/49
f 107/110/50 139/142/50 138/141/50 106/109/50
f 94/97/51 126/129/51 125/128/51 93/96/51
f 120/123/4 121/124/4 122/125/4 123/126/4 124/127/4 125/128/4 126/129/4 127/130/4 128/131/4 129/132/4 130/133/4 131/134/4 132/135/4 133/136/4 134/137/4 135/138/4 136/139/4 137/140/4 138/141/4 139/142/4 140/143/4 141/144/4 142/145/4 143/146/4 144/147/4 145/148/4 146/149/4 147/150/4 148/151/4 149/152/4 150/153/4 119/122/4
f 88/91/3 87/90/3 118/121/3 117/120/3 116/119/3 115/118/3 114/117/3 113/116/3 112/115/3 111/114/3 110/113/3 109/112/3 108/111/3 107/110/3 106/109/3 105/108/3 104/107/3 103/106/3 102/105/3 101/104/3 100/103/3 99/102/3 98/101/3 97/100/3 96/99/3 95/98/3 94/97/3 93/96/3 92/95/3 91/94/3 90/93/3 89/92/3
f 172/175/35 204/207/35 203/206/35 171/174/35
f 159/162/23 191/194/23 190/193/23 158/161/23
f 173/176/32 205/208/32 204/207/32 172/175/32
f 160/163/21 192/195/21 191/194/21 159/162/21
f 174/177/30 206/209/30 205/208/30 173/176/30
f 161/164/51 193/196/51 192/195/51 160/163/51
f 175/178/28 207/210/28 206/209/28 174/177/28
f 162/165/49 194/197/49 193/196/49 161/164/49
f 176/179/26 208/211/26 207/210/26 175/178/26
f 163/166/46 195/198/46 194/197/46 162/165/46
f 177/180/24 209/212/24 208/211/24 176/179/24
f 164/167/43 196/199/43 195/198/43 163/166/43
f 178/181/22 210/213/22 209/212/22 177/180/22
f 165/168/40 197/200/40 196/199/40 164/167/40
f 152/155/39 184/187/39 183/186/39 151/154/39
f 179/182/20 211/214/20 210/213/20 178/181/20
f 166/169/37 198/201/37 197/200/37 165/168/37
f 153/156/36 185/188/36 184/187/36 152/155/36
f 180/183/50 212/215/50 211/214/50 179/182/50
f 167/170/34 199/202/34 198/201/34 166/169/34
f 154/157/33 186/189/33 185/188/33 153/156/33
f 181/184/48 213/216/48 212/215/48 180/183/48
f 168/171/47 200/203/47 199/202/47 167/170/47
f 155/158/31 187/190/31 186/189/31 154/157/31
f 182/185/45 214/217/45 213/216/45 181/184/45
f 169/172/44 201/204/44 200/203/44 168/171/44
f 156/159/29 188/191/29 187/190/29 155/158/29
f 151/154/42 183/186/42 214/217/42 182/185/42
f 170/173/41 202/205/41 201/204/41 169/172/41
f 157/160/27 189/192/27 188/191/27 156/159/27
f 171/174/38 203/206/38 202/205/38 170/173/38
f 158/161/25 190/193/25 189/192/25 157/160/25
f 184/187/3 185/188/3 186/189/3 187/190/3 188/191/3 189/192/3 190/193/3 191/194/3 192/195/3 193/196/3 194/197/3 195/198/3 196/199/3 197/200/3 198/201/3 199/202/3 200/203/3 201/204/3 202/205/3 203/206/3 204/207/3 205/208/3 206/209/3 207/210/3 208/211/3 209/212/3 210/213/3 211/214/3 212/215/3 213/216/3 214/217/3 183/186/3
f 152/155/4 151/154/4 182/185/4 181/184/4 180/183/4 179/182/4 178/181/4 177/180/4 176/179/4 175/178/4 174/177/4 173/176/4 172/175/4 171/174/4 170/173/4 169/172/4 168/171/4 167/170/4 166/169/4 165/168/4 164/167/4 163/166/4 162/165/4 161/164/4 160/163/4 159/162/4 158/161/4 157/160/4 156/159/4 155/158/4 154/157/4 153/156/4
o Cube.001
v -0.512433 0.823640 0.535541
v -0.584686 0.907996 0.499099
v -0.512433 0.823640 -0.634443
v -0.584686 0.907996 -0.607940
v 0.636016 0.826808 0.535541
v 0.250248 0.953757 0.499099
v 0.636016 0.826808 -0.634443
v 0.250248 0.953757 -0.607940
v 0.398536 0.961932 0.499099
v 0.398536 0.961932 -0.607940
v 0.637841 0.924156 0.499099
v 0.637841 0.924156 -0.607940
v 0.637518 0.872459 0.499099
v 0.637518 0.872459 -0.607940
v 0.647126 0.855414 0.499099
v 0.647126 0.855414 -0.607940
vn -0.7595 -0.6505 -0.0000
vn 0.1559 0.9878 -0.0000
vn 1.0000 -0.0063 -0.0000
vn -0.0550 0.9985 -0.0000
vn 0.0028 -1.0000 -0.0000
vn -0.0547 0.9985 -0.0000
vn 0.8711 0.4911 -0.0000
vn 0.9322 -0.3620 -0.0000
vn 0.0064 0.3094 0.9509
vn 0.0048 0.2302 -0.9731
vt 0.375000 0.000000
vt 0.125000 0.750000
vt 0.625000 0.000000
vt 0.875000 0.750000
vt 0.375000 0.250000
vt 0.125000 0.500000
vt 0.625000 0.250000
vt 0.875000 0.500000
vt 0.375000 0.750000
vt 0.625000 0.750000
vt 0.375000 0.500000
vt 0.625000 0.500000
vt 0.625000 0.750000
vt 0.625000 0.500000
vt 0.625000 0.750000
vt 0.625000 0.500000
vt 0.625000 0.750000
vt 0.625000 0.500000
vt 0.625000 0.750000
vt 0.625000 0.500000
s 0
f 215/218/52 216/220/52 218/224/52 217/222/52
f 224/231/53 223/230/53 225/232/53 226/233/53
f 226/233/54 225/232/54 227/234/54 228/235/54
f 222/229/55 220/227/55 223/230/55 224/231/55
f 217/223/56 221/228/56 219/226/56 215/219/56
f 222/229/57 218/225/57 216/221/57 220/227/57
f 228/235/58 227/234/58 229/236/58 230/237/58
f 219/226/59 221/228/59 230/237/59 229/236/59
f 215/219/60 219/226/60 229/236/60 227/234/60 225/232/60 223/230/60 220/227/60 216/221/60
f 218/225/61 222/229/61 224/231/61 226/233/61 228/235/61 230/237/61 221/228/61 217/223/61
