# Blender 3.5.0
# www.blender.org
mtllib ladder.mtl
o Cube
v 0.324418 6.705346 -1.748851
v 0.324418 -6.595824 -1.748851
v 0.324418 6.705346 -1.333952
v 0.324418 -6.595824 -1.333952
v -0.324418 6.705346 -1.748851
v -0.324418 -6.595824 -1.748851
v -0.324418 6.705346 -1.333952
v -0.324418 -6.595824 -1.333952
v 0.324418 6.705346 1.748851
v 0.324418 -6.595824 1.748851
v 0.324418 6.705346 1.333952
v 0.324418 -6.595824 1.333952
v -0.324418 6.705346 1.748851
v -0.324418 -6.595824 1.748851
v -0.324418 6.705346 1.333952
v -0.324418 -6.595824 1.333952
v -0.239761 -6.460823 -1.333952
v -0.239761 -5.976435 -1.333952
v 0.239761 -6.460823 -1.333952
v 0.239761 -5.976435 -1.333952
v -0.239761 -6.460823 1.333952
v -0.239761 -5.976435 1.333952
v 0.239761 -5.976435 1.333952
v 0.239761 -6.460823 1.333952
v -0.239761 -4.706673 -1.333952
v -0.232264 -4.706673 -1.333952
v -0.239761 -4.222285 -1.333952
v 0.239761 -4.222285 -1.333952
v 0.239761 -4.706673 -1.333952
v -0.239761 -4.706673 1.333952
v -0.232264 -4.706673 1.333952
v -0.239761 -4.222285 1.333952
v 0.239761 -4.222285 1.333952
v 0.239761 -4.706673 1.333952
v -0.239761 -2.952523 -1.333952
v -0.239761 -2.468135 -1.333952
v 0.239761 -2.468135 -1.333952
v 0.239761 -2.952523 -1.333952
v 0.239761 -2.468135 1.333952
v 0.239761 -2.952523 1.333952
v -0.239761 -2.952523 1.333952
v -0.239761 -2.468135 1.333952
v -0.239761 -1.198373 -1.333952
v -0.239761 -0.713985 -1.333952
v 0.239761 -0.713985 -1.333952
v 0.239761 -1.198373 -1.333952
v 0.239761 -0.713985 1.333952
v 0.239761 -1.198373 1.333952
v -0.239761 -1.198373 1.333952
v -0.239761 -0.713985 1.333952
v -0.239761 0.555777 -1.333952
v -0.239761 1.040165 -1.333952
v 0.239761 1.040165 -1.333952
v 0.239761 0.555777 -1.333952
v 0.239761 1.040165 1.333952
v 0.239761 0.555777 1.333952
v -0.239761 0.555777 1.333952
v -0.239761 1.040165 1.333952
v -0.239761 2.309928 -1.333952
v -0.239761 2.794316 -1.333952
v 0.239761 2.794316 -1.333952
v 0.239761 2.309928 -1.333952
v 0.239761 2.794316 1.333952
v 0.239761 2.309928 1.333952
v -0.239761 2.309928 1.333952
v -0.239761 2.794316 1.333952
v -0.239761 4.064077 -1.333952
v -0.239761 4.548464 -1.333952
v 0.239761 4.548464 -1.333952
v 0.239761 4.064077 -1.333952
v 0.239761 4.548464 1.333952
v 0.239761 4.064077 1.333952
v -0.239761 4.064077 1.333952
v -0.239761 4.548464 1.333952
v -0.239761 5.818228 -1.333952
v -0.239761 6.302615 -1.333952
v 0.239761 6.302615 -1.333952
v 0.239761 5.818228 -1.333952
v 0.239761 6.302615 1.333952
v 0.239761 5.818228 1.333952
v -0.239761 5.818228 1.333952
v -0.239761 6.302615 1.333952
vn -0.0000 1.0000 -0.0000
vn -0.0000 -0.0000 1.0000
vn -1.0000 -0.0000 -0.0000
vn -0.0000 -1.0000 -0.0000
vn 1.0000 -0.0000 -0.0000
vn -0.0000 -0.0000 -1.0000
vt 0.625000 0.500000
vt 0.375000 0.500000
vt 0.625000 0.750000
vt 0.375000 0.750000
vt 0.875000 0.500000
vt 0.625000 0.250000
vt 0.125000 0.500000
vt 0.375000 0.250000
vt 0.875000 0.750000
vt 0.625000 1.000000
vt 0.625000 0.000000
vt 0.375000 1.000000
vt 0.375000 0.000000
vt 0.125000 0.750000
vt 0.625000 0.500000
vt 0.375000 0.500000
vt 0.625000 0.750000
vt 0.375000 0.750000
vt 0.875000 0.500000
vt 0.625000 0.250000
vt 0.125000 0.500000
vt 0.375000 0.250000
vt 0.875000 0.750000
vt 0.625000 1.000000
vt 0.625000 0.000000
vt 0.375000 1.000000
vt 0.375000 0.000000
vt 0.125000 0.750000
vt 0.377537 0.967381
vt 0.375000 0.242034
vt 0.125000 0.507966
vt 0.386642 0.967381
vt 0.625000 0.242034
vt 0.875000 0.507966
vt 0.377537 0.782619
vt 0.375000 0.507966
vt 0.386642 0.782619
vt 0.625000 0.507966
vt 0.377537 0.967381
vt 0.375000 0.007966
vt 0.125000 0.742034
vt 0.386642 0.967381
vt 0.625000 0.007966
vt 0.875000 0.742034
vt 0.386642 0.782619
vt 0.625000 0.742034
vt 0.377537 0.782619
vt 0.375000 0.742034
vt 0.410507 0.967381
vt 0.375000 0.242034
vt 0.125000 0.507966
vt 0.410507 0.964493
vt 0.128908 0.507966
vt 0.419611 0.967381
vt 0.625000 0.242034
vt 0.875000 0.507966
vt 0.419612 0.782619
vt 0.625000 0.507966
vt 0.410507 0.782619
vt 0.375000 0.507966
vt 0.410507 0.967381
vt 0.375000 0.007966
vt 0.125000 0.742034
vt 0.410507 0.964493
vt 0.128908 0.742034
vt 0.419612 0.967381
vt 0.625000 0.007966
vt 0.875000 0.742034
vt 0.419611 0.782619
vt 0.625000 0.742034
vt 0.410507 0.782619
vt 0.375000 0.742034
vt 0.443477 0.967381
vt 0.375000 0.242034
vt 0.125000 0.507966
vt 0.452581 0.967381
vt 0.625000 0.242034
vt 0.875000 0.507966
vt 0.452581 0.782619
vt 0.625000 0.507966
vt 0.443477 0.782619
vt 0.375000 0.507966
vt 0.452581 0.782619
vt 0.625000 0.742034
vt 0.443477 0.782619
vt 0.375000 0.742034
vt 0.443477 0.967381
vt 0.375000 0.007966
vt 0.125000 0.742034
vt 0.452581 0.967381
vt 0.625000 0.007966
vt 0.875000 0.742034
vt 0.476447 0.967381
vt 0.375000 0.242034
vt 0.125000 0.507966
vt 0.485551 0.967381
vt 0.625000 0.242034
vt 0.875000 0.507966
vt 0.485551 0.782619
vt 0.625000 0.507966
vt 0.476447 0.782619
vt 0.375000 0.507966
vt 0.485551 0.782619
vt 0.625000 0.742034
vt 0.476447 0.782619
vt 0.375000 0.742034
vt 0.476447 0.967381
vt 0.375000 0.007966
vt 0.125000 0.742034
vt 0.485551 0.967381
vt 0.625000 0.007966
vt 0.875000 0.742034
vt 0.509417 0.967381
vt 0.375000 0.242034
vt 0.125000 0.507966
vt 0.518521 0.967381
vt 0.625000 0.242034
vt 0.875000 0.507966
vt 0.518521 0.782619
vt 0.625000 0.507966
vt 0.509417 0.782619
vt 0.375000 0.507966
vt 0.518521 0.782619
vt 0.625000 0.742034
vt 0.509417 0.782619
vt 0.375000 0.742034
vt 0.509417 0.967381
vt 0.375000 0.007966
vt 0.125000 0.742034
vt 0.518521 0.967381
vt 0.625000 0.007966
vt 0.875000 0.742034
vt 0.542387 0.967381
vt 0.375000 0.242034
vt 0.125000 0.507966
vt 0.551491 0.967381
vt 0.625000 0.242034
vt 0.875000 0.507966
vt 0.551491 0.782619
vt 0.625000 0.507966
vt 0.542387 0.782619
vt 0.375000 0.507966
vt 0.551491 0.782619
vt 0.625000 0.742034
vt 0.542387 0.782619
vt 0.375000 0.742034
vt 0.542387 0.967381
vt 0.375000 0.007966
vt 0.125000 0.742034
vt 0.551491 0.967381
vt 0.625000 0.007966
vt 0.875000 0.742034
vt 0.575356 0.967381
vt 0.375000 0.242034
vt 0.125000 0.507966
vt 0.584461 0.967381
vt 0.625000 0.242034
vt 0.875000 0.507966
vt 0.584461 0.782619
vt 0.625000 0.507966
vt 0.575356 0.782619
vt 0.375000 0.507966
vt 0.584461 0.782619
vt 0.625000 0.742034
vt 0.575356 0.782619
vt 0.375000 0.742034
vt 0.575356 0.967381
vt 0.375000 0.007966
vt 0.125000 0.742034
vt 0.584461 0.967381
vt 0.625000 0.007966
vt 0.875000 0.742034
vt 0.608326 0.967381
vt 0.375000 0.242034
vt 0.125000 0.507966
vt 0.617430 0.967381
vt 0.625000 0.242034
vt 0.875000 0.507966
vt 0.617430 0.782619
vt 0.625000 0.507966
vt 0.608326 0.782619
vt 0.375000 0.507966
vt 0.617430 0.782619
vt 0.625000 0.742034
vt 0.608326 0.782619
vt 0.375000 0.742034
vt 0.608326 0.967381
vt 0.375000 0.007966
vt 0.125000 0.742034
vt 0.617430 0.967381
vt 0.625000 0.007966
vt 0.875000 0.742034
s 0
usemtl Material
f 1/1/1 5/5/1 7/9/1 3/3/1
f 7/10/2 8/12/2 17/29/2 18/32/2 26/52/2 25/49/2 27/54/2 35/73/2 36/76/2 43/93/2 44/96/2 51/113/2 52/116/2 59/133/2 60/136/2 67/153/2 68/156/2 69/159/2 70/161/2 61/139/2 62/141/2 53/119/2 54/121/2 45/99/2 46/101/2 37/79/2 38/81/2 28/57/2 29/59/2 20/37/2 19/35/2 4/4/2 3/3/2 77/179/2 78/181/2 75/173/2 76/176/2
f 77/179/2 3/3/2 7/10/2 76/176/2
f 67/153/2 60/136/2 61/139/2 70/161/2
f 59/133/2 52/116/2 53/119/2 62/141/2
f 51/113/2 44/96/2 45/99/2 54/121/2
f 43/93/2 36/76/2 37/79/2 46/101/2
f 35/73/2 27/54/2 28/57/2 38/81/2
f 26/52/2 18/32/2 20/37/2 29/59/2
f 17/29/2 8/12/2 4/4/2 19/35/2
f 8/13/3 7/11/3 5/6/3 6/8/3
f 6/7/4 2/2/4 4/4/4 8/14/4
f 2/2/5 1/1/5 3/3/5 4/4/5
f 6/8/6 5/6/6 1/1/6 2/2/6
f 9/15/1 11/17/1 15/23/1 13/19/1
f 79/183/6 11/17/6 12/18/6 24/47/6 23/45/6 34/71/6 33/69/6 40/85/6 39/83/6 48/105/6 47/103/6 56/125/6 55/123/6 64/145/6 63/143/6 72/165/6 71/163/6 74/170/6 73/167/6 66/150/6 65/147/6 58/130/6 57/127/6 50/110/6 49/107/6 42/90/6 41/87/6 32/66/6 30/61/6 31/64/6 22/42/6 21/39/6 16/26/6 15/24/6 82/190/6 81/187/6 80/185/6
f 82/190/6 15/24/6 11/17/6 79/183/6
f 63/143/6 66/150/6 73/167/6 72/165/6
f 55/123/6 58/130/6 65/147/6 64/145/6
f 47/103/6 50/110/6 57/127/6 56/125/6
f 39/83/6 42/90/6 49/107/6 48/105/6
f 33/69/6 32/66/6 41/87/6 40/85/6
f 23/45/6 22/42/6 31/64/6 34/71/6
f 24/47/6 12/18/6 16/26/6 21/39/6
f 16/27/3 14/22/3 13/20/3 15/25/3
f 14/21/4 16/28/4 12/18/4 10/16/4
f 10/16/5 12/18/5 11/17/5 9/15/5
f 14/22/2 10/16/2 9/15/2 13/20/2
f 22/43/3 18/33/3 17/30/3 21/40/3
f 19/36/5 20/38/5 23/46/5 24/48/5
f 17/31/4 19/36/4 24/48/4 21/41/4
f 23/46/1 20/38/1 18/34/1 22/44/1
usemtl 
f 42/91/3 36/77/3 35/74/3 41/88/3
f 38/82/5 37/80/5 39/84/5 40/86/5
f 35/75/4 38/82/4 40/86/4 41/89/4
f 39/84/1 37/80/1 36/78/1 42/92/1
f 50/111/3 44/97/3 43/94/3 49/108/3
f 46/102/5 45/100/5 47/104/5 48/106/5
f 43/95/4 46/102/4 48/106/4 49/109/4
f 47/104/1 45/100/1 44/98/1 50/112/1
f 58/131/3 52/117/3 51/114/3 57/128/3
f 54/122/5 53/120/5 55/124/5 56/126/5
f 51/115/4 54/122/4 56/126/4 57/129/4
f 55/124/1 53/120/1 52/118/1 58/132/1
f 66/151/3 60/137/3 59/134/3 65/148/3
f 62/142/5 61/140/5 63/144/5 64/146/5
f 59/135/4 62/142/4 64/146/4 65/149/4
f 63/144/1 61/140/1 60/138/1 66/152/1
f 74/171/3 68/157/3 67/154/3 73/168/3
f 70/162/5 69/160/5 71/164/5 72/166/5
f 67/155/4 70/162/4 72/166/4 73/169/4
f 71/164/1 69/160/1 68/158/1 74/172/1
f 82/191/3 76/177/3 75/174/3 81/188/3
f 78/182/5 77/180/5 79/184/5 80/186/5
f 75/175/4 78/182/4 80/186/4 81/189/4
f 79/184/1 77/180/1 76/178/1 82/192/1
usemtl 
f 32/67/3 27/55/3 25/50/3 30/62/3
f 29/60/5 28/58/5 33/70/5 34/72/5
f 31/65/4 30/63/4 25/51/4 26/53/4 29/60/4 34/72/4
f 33/70/1 28/58/1 27/56/1 32/68/1
