# Blender 3.5.0
# www.blender.org
mtllib road_closed_sign.mtl
o Cube
v 0.150574 2.426096 0.000000
v 0.150574 1.011882 -1.414214
v 0.150574 1.011882 1.414214
v 0.150574 -0.402331 0.000000
v 0.078835 2.426096 0.000000
v 0.078835 1.011882 -1.414214
v -0.085956 1.130675 -0.085957
v 0.078835 1.011882 1.414214
v -0.085956 1.130675 0.085957
v 0.085957 -0.316375 0.085957
v 0.085957 -0.402331 0.000000
v 0.078835 -0.316375 0.085957
v 0.078835 1.130675 0.085957
v 0.078835 -0.316375 -0.085957
v 0.078835 1.130675 -0.085957
v 0.085957 -0.316375 -0.085957
v 0.085957 -1.243094 0.085957
v 0.085957 -1.243094 0.005391
v 0.085957 -1.324909 0.005392
v 0.005392 -1.324909 0.085957
v 0.005392 -1.243094 0.085956
v -0.085956 -1.324909 -0.005391
v -0.085956 -1.243094 -0.085956
v -0.085956 -1.243094 -0.005391
v -0.005391 -1.243094 -0.085956
v -0.005391 -1.324909 -0.085957
v 0.085957 -1.324909 -0.005392
v 0.085957 -1.243094 -0.085956
v 0.085957 -1.243094 -0.005392
v -0.005391 -1.324909 0.085957
v -0.085956 -1.243094 0.085957
v -0.005391 -1.243094 0.085956
v -0.085956 -1.243094 0.005391
v -0.085956 -1.324909 0.005391
v 0.005391 -1.324909 -0.085957
v 0.005391 -1.243094 -0.085956
v 0.000000 -1.324909 0.080565
v -0.080565 -1.324909 0.000000
v 0.000000 -1.324909 -0.080565
v 0.080565 -1.324909 0.000000
v -0.040128 -1.357030 0.040437
v -0.038479 -1.357030 -0.042086
v 0.000000 -1.357030 0.080565
v 0.000000 -1.357030 -0.080565
v 0.080565 -1.357030 -0.000000
v -0.080565 -1.357030 0.000000
v -1.170796 -1.325557 1.134740
v -1.170796 -1.357030 1.090231
v 1.134740 -1.325557 1.170796
v 1.090231 -1.357030 1.170796
v 0.921233 -1.357030 -1.001798
v 0.965743 -1.325557 -1.001798
v -1.090230 -1.357030 1.170796
v -1.134740 -1.325557 1.170796
v -1.001798 -1.357030 -0.921233
v -1.001798 -1.325557 -0.965743
v 1.001798 -1.325557 -0.965743
v 1.001798 -1.357030 -0.921233
v -1.170796 -1.274567 1.134740
v -1.170796 -1.243094 1.090231
v 0.965743 -1.274567 -1.001798
v 0.921233 -1.243094 -1.001798
v 1.170796 -1.357030 1.090231
v 1.170796 -1.325557 1.134740
v -0.965742 -1.325557 -1.001798
v -0.921233 -1.357030 -1.001798
v -1.090230 -1.243094 1.170796
v -1.134740 -1.274567 1.170796
v 1.001798 -1.274567 -0.965743
v 1.001798 -1.243094 -0.921233
v 1.134740 -1.274567 1.170796
v 1.090231 -1.243094 1.170796
v -1.001798 -1.274567 -0.965742
v -1.001798 -1.243094 -0.921233
v 1.170796 -1.274567 1.134740
v 1.170796 -1.243094 1.090231
v -0.965742 -1.274567 -1.001798
v -0.921233 -1.243094 -1.001798
vn -0.0000 0.7071 0.7071
vn -0.0000 -0.7071 0.7071
vn -1.0000 -0.0000 -0.0000
vn -0.0000 -0.7071 -0.7071
vn 1.0000 -0.0000 -0.0000
vn -0.0000 0.7071 -0.7071
vn -0.0000 -0.0000 1.0000
vn -0.0000 -0.0000 -1.0000
vn -0.0000 -1.0000 -0.0000
vn -0.0000 1.0000 -0.0000
vn 0.7071 -0.0000 0.7071
vn 0.7071 -0.0000 -0.7071
vn -0.7071 -0.0000 0.7071
vn -0.7071 -0.0000 -0.7071
vn -0.5000 -0.7071 0.5000
vn 0.5000 -0.7071 -0.5000
vn 0.5000 -0.7071 0.5000
vn -0.5000 -0.7071 -0.5000
vn -0.5000 0.7071 0.5000
vn 0.5000 0.7071 -0.5000
vn -0.5000 0.7071 -0.5000
vn 0.5000 0.7071 0.5000
vt 0.625000 0.500000
vt 0.375000 0.500000
vt 0.625000 0.750000
vt 0.375000 0.750000
vt 0.875000 0.500000
vt 0.625000 0.250000
vt 0.125000 0.500000
vt 0.375000 0.250000
vt 0.625000 0.750000
vt 0.875000 0.750000
vt 0.625000 1.000000
vt 0.625000 0.000000
vt 0.625000 0.500000
vt 0.390195 0.975182
vt 0.477678 0.250000
vt 0.375000 0.975183
vt 0.149817 0.750000
vt 0.468927 0.125000
vt 0.390195 1.000000
vt 0.390195 0.000000
vt 0.477678 0.260356
vt 0.518098 0.127902
vt 0.625000 0.260356
vt 0.864644 0.500000
vt 0.375000 0.015195
vt 0.125000 0.734805
vt 0.477678 0.989644
vt 0.502902 0.143097
vt 0.625000 0.989644
vt 0.864644 0.750000
vt 0.149817 0.734805
vt 0.477678 0.000000
vt 0.477678 1.000000
vt 0.383330 0.250000
vt 0.495116 0.500000
vt 0.383330 0.132840
vt 0.504543 0.500000
vt 0.375000 0.132840
vt 0.125000 0.617160
vt 0.504543 0.320480
vt 0.375000 0.367160
vt 0.242160 0.500000
vt 0.504543 0.929520
vt 0.383330 0.367160
vt 0.495116 0.500000
vt 0.504543 0.750000
vt 0.375000 0.632840
vt 0.515232 0.929520
vt 0.383330 0.750000
vt 0.515232 0.500000
vt 0.383330 0.632840
vt 0.505805 0.500000
vt 0.515232 0.750000
vt 0.383330 0.867160
vt 0.515232 0.500000
vt 0.375000 0.867160
vt 0.257840 0.750000
vt 0.515232 0.320480
vt 0.375000 0.117159
vt 0.125000 0.632841
vt 0.515232 0.320480
vt 0.383330 0.000000
vt 0.383330 1.000000
vt 0.524659 0.500000
vt 0.383330 0.117159
vt 0.515232 0.500000
vt 0.375000 0.382841
vt 0.257841 0.500000
vt 0.504543 0.320480
vt 0.383330 0.500000
vt 0.504543 0.500000
vt 0.383330 0.382841
vt 0.504543 0.500000
vt 0.383330 0.617160
vt 0.513970 0.500000
vt 0.504543 0.750000
vt 0.375000 0.617160
vt 0.504543 0.929520
vt 0.375000 0.882840
vt 0.242160 0.750000
vt 0.515232 0.929520
vt 0.383330 0.882840
vt 0.524659 0.500000
vt 0.515232 0.750000
vt 0.250000 0.507840
vt 0.505174 0.929520
vt 0.505174 0.320480
vt 0.367160 0.625000
vt 0.514601 0.929520
vt 0.505174 0.929520
vt 0.250000 0.742160
vt 0.514601 0.320480
vt 0.514601 0.929520
vt 0.132841 0.625000
vt 0.514601 0.320480
vt 0.505174 0.320480
vt 0.509869 0.000000
vt 0.509869 1.000000
vt 0.500442 0.000000
vt 0.514601 0.130596
vt 0.510098 0.000000
vt 0.505174 0.000000
vt 0.505174 1.000000
vt 0.495747 0.000000
vt 0.505174 0.250000
vt 0.514601 0.250000
vt 0.514601 0.000000
vt 0.514601 1.000000
vt 0.514601 0.250000
vt 0.505174 0.250000
vt 0.514601 1.000000
vt 0.505174 0.000000
vt 0.505174 1.000000
vt 0.375000 0.069058
vt 0.194058 0.680942
vt 0.377604 1.000000
vt 0.377604 0.000000
vt 0.125000 0.750000
vt 0.194058 0.680942
vt 0.377604 0.000000
vt 0.377604 1.000000
vt 0.125000 0.750000
vt 0.622396 1.000000
vt 0.622396 0.000000
vt 0.875000 0.750000
vt 0.622396 0.000000
vt 0.805942 0.680942
vt 0.377604 0.250000
vt 0.377415 0.244999
vt 0.125000 0.500000
vt 0.375000 0.180942
vt 0.194058 0.569058
vt 0.622396 0.000000
vt 0.622396 1.000000
vt 0.875000 0.750000
vt 0.805942 0.680942
vt 0.618177 0.000000
vt 0.805942 0.569058
vt 0.622396 0.250000
vt 0.612969 0.000000
vt 0.875000 0.500000
vt 0.305942 0.680942
vt 0.377604 0.750000
vt 0.375000 0.750000
vt 0.377794 0.744974
vt 0.694058 0.680942
vt 0.622396 0.750000
vt 0.625000 0.750000
vt 0.622620 0.744069
vt 0.377604 0.250000
vt 0.125000 0.500000
vt 0.194058 0.569058
vt 0.805942 0.569058
vt 0.622396 0.250000
vt 0.875000 0.500000
vt 0.375000 0.500000
vt 0.377604 0.500000
vt 0.305942 0.569058
vt 0.694058 0.569058
vt 0.625000 0.500000
vt 0.622396 0.500000
vt 0.305942 0.680942
vt 0.377604 0.750000
vt 0.375000 0.750000
vt 0.377415 0.744974
vt 0.694058 0.680942
vt 0.612969 0.500000
vt 0.622396 0.750000
vt 0.625000 0.750000
vt 0.305942 0.569058
vt 0.375000 0.500000
vt 0.377604 0.500000
vt 0.694058 0.569058
vt 0.622396 0.500000
vt 0.625000 0.500000
s 0
usemtl Material
f 1/1/1 5/5/1 8/10/1 3/3/1
f 10/14/2 11/16/2 4/4/2 3/3/2 8/11/2 12/19/2
f 8/12/3 5/6/3 6/8/3 14/25/3 15/28/3 13/22/3 12/20/3
f 6/7/4 2/2/4 4/4/4 11/17/4 16/31/4 14/26/4
f 2/2/5 1/1/5 3/3/5 4/4/5
f 6/8/6 5/6/6 1/1/6 2/2/6
f 43/105/11 58/139/11 70/161/11 29/66/11 27/61/11 40/95/11 45/109/11
f 69/159/12 57/138/12 52/127/12 61/146/12
f 31/71/10 33/75/10 60/145/10 67/157/10 32/73/10
f 70/161/10 62/149/10 36/83/10 28/64/10 29/66/10
f 58/140/9 43/104/9 53/129/9 48/117/9 46/112/9 41/99/9 42/101/9 44/107/9 51/124/9
f 37/87/11 30/69/11 32/73/11 67/157/11 53/128/11 43/105/11
f 48/116/14 60/143/14 33/76/14 34/78/14 38/90/14 46/113/14
f 35/81/14 36/84/14 62/147/14 51/123/14 44/108/14 39/93/14
f 48/117/15 53/129/15 54/131/15 47/114/15
f 52/126/16 57/137/16 58/140/16 51/124/16
f 47/115/3 59/142/3 60/144/3 48/118/3
f 51/125/8 62/148/8 61/146/8 52/127/8
f 53/130/7 67/156/7 68/158/7 54/132/7
f 57/138/5 69/159/5 70/160/5 58/141/5
f 59/142/19 68/158/19 67/157/19 60/145/19
f 62/149/20 70/161/20 69/159/20 61/146/20
f 54/132/13 68/158/13 59/142/13 47/115/13
usemtl 
f 66/154/12 78/174/12 25/55/12 26/58/12 39/92/12 44/106/12
f 21/45/10 72/165/10 76/172/10 18/37/10 17/35/10
f 23/50/10 25/55/10 78/174/10 74/167/10 24/52/10
f 41/97/9 55/133/9 66/154/9 44/106/9 42/100/9
f 50/120/9 43/102/9 45/110/9 63/150/9
f 50/121/13 72/163/13 21/46/13 20/43/13 37/86/13 43/103/13
f 22/48/13 24/53/13 74/168/13 55/134/13 41/98/13 46/111/13 38/89/13
f 64/152/11 75/170/11 71/162/11 49/119/11
f 77/173/14 65/153/14 56/136/14 73/166/14
f 19/40/12 18/37/12 76/172/12 63/150/12 45/110/12 40/96/12
f 50/122/17 63/151/17 64/152/17 49/119/17
f 56/136/18 65/153/18 66/155/18 55/135/18
f 49/119/7 71/162/7 72/164/7 50/122/7
f 55/135/3 74/169/3 73/166/3 56/136/3
f 63/151/5 76/171/5 75/170/5 64/152/5
f 65/153/8 77/173/8 78/175/8 66/155/8
f 74/169/21 78/175/21 77/173/21 73/166/21
f 71/162/22 75/170/22 76/172/22 72/165/22
usemtl 
f 28/62/5 16/32/5 11/18/5 10/15/5 17/34/5 18/36/5 19/38/5 27/59/5 29/65/5
f 30/67/7 20/41/7 21/44/7 17/34/7 10/15/7 12/21/7 13/23/7 9/13/7 31/70/7 32/72/7
f 33/74/3 31/70/3 9/13/3 7/9/3 23/49/3 24/51/3 22/47/3 34/77/3
f 26/56/8 25/54/8 23/49/8 7/9/8 15/29/8 14/27/8 16/33/8 28/63/8 36/82/8 35/79/8
f 20/42/9 30/68/9 37/85/9
f 22/47/9 38/88/9 34/77/9
f 26/57/9 35/80/9 39/91/9
f 40/94/9 27/60/9 19/39/9
f 15/30/10 7/9/10 9/13/10 13/24/10
