# Blender 3.5.0
# www.blender.org
mtllib road_block.mtl
o Cube
v -1.130050 -0.403177 0.100260
v 0.977102 -0.403177 0.100260
v -1.130050 1.319011 0.100260
v 0.977102 1.319011 0.100260
v -1.130050 -0.403177 -0.020091
v 0.977102 -0.403177 -0.020091
v -1.130050 1.319011 -0.020091
v 0.977102 1.319011 -0.020091
v -1.045518 -0.403177 0.100260
v 1.061634 -0.403177 0.100260
v -1.045518 1.319011 0.100260
v 1.061634 1.319011 0.100260
v -1.045518 -0.403177 -0.020091
v 1.061634 -0.403177 -0.020091
v -1.045518 1.319011 -0.020091
v 1.061634 1.319011 -0.020091
v 1.859804 0.191778 -0.078943
v 1.859804 -0.178809 -0.078943
v 1.859804 0.191778 -0.019042
v 1.859804 -0.178809 -0.019042
v -1.928220 0.191778 -0.078943
v -1.928220 -0.178809 -0.078943
v -1.928220 0.191778 -0.019042
v -1.928220 -0.178809 -0.019042
v 1.859804 0.791778 -0.078943
v 1.859804 0.421191 -0.078943
v 1.859804 0.791778 -0.019042
v 1.859804 0.421191 -0.019042
v -1.928220 0.791778 -0.078943
v -1.928220 0.421191 -0.078943
v -1.928220 0.791778 -0.019042
v -1.928220 0.421191 -0.019042
v 1.859804 1.391778 -0.078943
v 1.859804 1.021191 -0.078943
v 1.859804 1.391778 -0.019042
v 1.859804 1.021191 -0.019042
v -1.928220 1.391778 -0.078943
v -1.928220 1.021191 -0.078943
v -1.928220 1.391778 -0.019042
v -1.928220 1.021191 -0.019042
v -0.385400 -1.038253 -0.513760
v 1.721752 -1.038253 -0.513760
v -1.790168 -1.038253 -0.513760
v 0.316984 -1.038253 -0.513760
v -0.385400 -1.038253 0.388086
v 1.721752 -1.038253 0.388086
v -1.790168 -1.038253 0.388086
v 0.316984 -1.038253 0.388086
v -0.385400 -0.388802 0.388086
v 1.721752 -0.388802 0.388086
v -1.790168 -0.388802 0.388086
v 0.316984 -0.388802 0.388086
v 1.721752 -0.740843 -0.307917
v -0.385400 -1.122217 -0.513760
v 1.721752 -1.122217 -0.513760
v -1.790168 -1.122217 -0.513760
v 0.316984 -1.122217 -0.513760
v 1.721752 -1.038253 0.593930
v -0.385400 -1.038253 0.593930
v -1.790168 -1.038253 0.593930
v 0.316984 -1.038253 0.593930
v 1.721752 -1.038253 -0.307917
v -0.385400 -1.038253 -0.307917
v -1.790168 -1.038253 -0.307917
v 0.316984 -1.038253 -0.307917
v 1.721752 -0.388802 -0.307917
v -0.385400 -0.388802 -0.307917
v 0.316984 -0.388802 -0.307917
v -1.790168 -0.388802 -0.307917
v 1.721752 -0.740843 0.388086
v -0.385400 -1.122217 0.593930
v 1.721752 -1.122217 0.593930
v -1.790168 -1.122217 0.593930
v 0.316984 -1.122217 0.593930
v -1.130050 -0.388802 0.100260
v 0.977102 -0.388802 0.100260
v 1.061634 -0.388802 0.100260
v -1.045518 -0.388802 0.100260
v -1.045518 -0.388802 -0.020091
v 1.061634 -0.388802 -0.020091
v 0.977102 -0.388802 -0.020091
v -1.130050 -0.388802 -0.020091
v -1.790168 -0.740843 -0.307917
v -1.790168 -0.740843 0.388086
v -0.385400 -0.740843 0.388086
v -0.385400 -0.740843 -0.307917
v 0.316984 -0.740843 -0.307917
v 0.316984 -0.740843 0.388086
vn 1.0000 -0.0000 -0.0000
vn -0.0000 -0.0000 -1.0000
vn -0.0000 -1.0000 -0.0000
vn -0.0000 1.0000 -0.0000
vn -0.0000 -0.5691 -0.8223
vn -0.0000 -0.0000 1.0000
vn -0.0000 -0.5691 0.8223
vn -1.0000 -0.0000 -0.0000
vt 0.619519 0.978076
vt 0.619519 0.021924
vt 0.858557 0.260962
vt 0.619519 0.978076
vt 0.619519 0.021924
vt 0.858557 0.260962
vt 1.338560 1.774085
vt 0.169649 1.774089
vt 0.049606 0.268986
vt 1.216111 1.774085
vt 0.179853 1.774089
vt 0.039402 0.260962
vt 0.619519 0.739038
vt 0.858557 0.500000
vt 0.619519 0.739038
vt 0.858557 0.500000
vt 0.049606 0.508024
vt 0.755516 1.774087
vt 0.633067 1.774087
vt 0.039402 0.500000
vt 0.755516 1.774087
vt 0.619519 0.260962
vt 0.619519 0.260962
vt 0.752693 1.774088
vt 0.288644 0.268986
vt -0.410572 1.774088
vt 0.762897 1.774088
vt 0.278440 0.260962
vt -0.288123 1.774088
vt 0.619519 0.500000
vt 0.619519 0.500000
vt 0.288644 0.508024
vt 0.172472 1.774087
vt 0.278440 0.500000
vt 0.294921 1.774087
vt 0.172472 1.774087
vt 0.365845 0.569725
vt 0.000000 1.000000
vt 0.539538 0.704885
vt 0.353039 0.569725
vt 0.000000 0.000000
vt 0.380481 0.978076
vt 0.365845 0.552348
vt 1.000000 0.235955
vt 0.539946 0.704426
vt 0.353039 0.552348
vt 0.380481 0.739038
vt 1.000000 0.000000
vt 0.516033 0.726151
vt 1.000000 1.000000
vt 0.548274 0.672966
vt 0.543044 0.726151
vt 1.000000 0.000000
vt 0.380481 0.260962
vt 0.516033 0.699140
vt 0.000000 0.235955
vt 0.548593 0.672850
vt 0.543044 0.699140
vt 0.380481 0.500000
vt 0.000000 0.000000
vt 0.483484 0.622127
vt 0.516033 0.645119
vt 0.000000 1.000000
vt 0.380481 0.978076
vt 0.417804 0.622127
vt 0.000000 0.000000
vt 1.000000 0.617977
vt 0.483484 0.533004
vt 0.516033 0.672129
vt 1.000000 0.382023
vt 0.380481 0.739038
vt 0.417804 0.533004
vt 0.516033 0.726151
vt 1.000000 1.000000
vt 0.543044 0.726151
vt 0.380481 0.260962
vt 1.000000 0.000000
vt 0.000000 0.617977
vt 0.516033 0.699140
vt 0.000000 0.382023
vt 0.543044 0.699140
vt 0.380481 0.500000
vt 0.516033 0.645119
vt 0.483484 0.622127
vt 0.000000 1.000000
vt 0.380481 0.978076
vt 0.417804 0.622127
vt 0.000000 0.000000
vt 1.000000 1.000000
vt 0.516033 0.672129
vt 0.483484 0.533004
vt 1.000000 0.764046
vt 0.380481 0.739038
vt 0.417804 0.533004
vt 0.516033 0.726151
vt 1.000000 1.000000
vt 0.543044 0.726151
vt 0.380481 0.260962
vt 1.000000 0.000000
vt 0.000000 1.000000
vt 0.516033 0.699140
vt 0.000000 0.764046
vt 0.543044 0.699140
vt 0.380481 0.500000
vt 0.293324 0.398458
vt 0.300975 0.292943
vt 0.337918 0.911402
vt 0.437466 0.917457
vt 0.488821 0.660571
vt 0.624386 0.796917
vt 0.293324 0.000000
vt 0.482731 0.851455
vt 0.262757 0.668903
vt 0.537787 0.386479
vt 0.212033 0.397154
vt 0.624386 0.398458
vt 0.221106 0.796917
vt 0.962263 0.500000
vt 0.556754 0.389216
vt 0.488821 0.660571
vt 0.341872 0.460286
vt 0.694334 0.668903
vt 0.402034 0.754789
vt 0.122911 0.349737
vt 0.316023 0.427430
vt 0.514167 0.495722
vt 0.962263 0.750000
vt 0.380481 0.500000
vt 0.331062 0.000000
vt 0.556754 0.639216
vt 0.316023 0.825888
vt 0.260031 0.734760
vt 0.341872 0.710286
vt 0.380481 0.739038
vt 0.331062 0.398458
vt 0.122911 0.599738
vt 0.538866 0.389019
vt 0.489284 0.796917
vt 0.331062 0.398458
vt 0.388876 0.292943
vt 0.037794 0.796917
vt 0.238536 0.796917
vt 0.662123 0.796917
vt 0.483448 0.917457
vt 0.331062 0.000000
vt 0.075589 0.894012
vt 0.514514 0.851455
vt 0.662123 0.398458
vt 0.216224 0.334128
vt 0.437466 0.120541
vt 0.438776 0.660571
vt 0.624386 0.000000
vt 0.300975 0.914230
vt 0.104294 0.796917
vt 0.293324 0.398458
vt 0.293324 0.796917
vt 0.482731 0.238485
vt 0.550475 0.668903
vt 0.334158 0.754789
vt 0.668163 0.394571
vt 0.624386 0.398458
vt 0.329915 0.389216
vt 0.538866 0.660571
vt 0.454730 0.911402
vt 0.652448 0.500000
vt 0.406616 0.668903
vt 0.607440 0.460286
vt 0.553645 0.349737
vt 0.605663 0.386479
vt 0.592261 0.500000
vt 0.331062 0.796917
vt 0.329915 0.639216
vt 0.510306 0.655833
vt 0.260031 0.495722
vt 0.652447 0.750000
vt 0.592261 0.739038
vt 0.331062 0.398458
vt 0.553645 0.599738
vt 0.510306 0.257374
vt 0.514167 0.734760
vt 0.607440 0.710286
vt 0.488821 0.389019
vt 0.489284 0.000000
vt 0.388876 0.914230
vt 0.331062 0.398458
vt 0.238536 0.000000
vt 0.543576 0.453002
vt 0.483448 0.120541
vt 0.339080 0.883157
vt 0.331062 0.796917
vt 0.514514 0.238485
vt 0.238536 0.398458
vt 0.662123 0.398458
vt 0.674176 0.328981
vt 0.617524 0.978076
vt 1.338560 -0.774090
vt 0.617524 0.021924
vt 0.169649 -0.774087
vt 0.617524 0.978076
vt 1.216111 -0.774090
vt 0.617524 0.021924
vt 0.179853 -0.774087
vt 0.617524 0.260962
vt 0.762897 -0.774089
vt -0.288123 -0.774089
vt 0.617524 0.260962
vt 0.752693 -0.774089
vt -0.410572 -0.774089
vt 0.617524 0.500000
vt 0.172472 -0.774089
vt 0.617524 0.500000
vt 0.294921 -0.774089
vt 0.172472 -0.774089
vt 0.633067 -0.774089
vt 0.617524 0.739038
vt 0.755516 -0.774089
vt 0.617524 0.739038
vt 0.755516 -0.774089
vt 0.158222 0.000000
vt 0.668528 0.257374
vt 0.406616 0.783388
vt 0.158222 0.796917
vt 0.474245 0.825888
vt 0.694334 0.783388
vt 0.158222 0.398458
vt 0.221106 0.911402
vt 0.474245 0.427430
vt 0.158222 0.398458
vt 0.668528 0.655833
vt 0.454730 0.796917
vt 0.605663 0.754789
vt 0.489284 0.398458
vt 0.402034 0.386479
vt 0.489284 0.398458
s 0
usemtl Material
f 75/195/1 1/1/1 5/13/1 82/217/1
f 5/13/2 82/217/2 79/209/2 13/30/2
f 13/30/1 79/209/1 78/206/1 9/22/1
f 9/22/2 1/2/2 75/197/2 78/206/2
f 5/14/3 13/30/3 9/22/3 1/3/3
f 59/155/5 60/156/5 84/222/5 85/225/5
f 57/148/4 74/192/4 72/186/4 55/142/4
f 41/105/6 43/111/6 56/145/6 54/139/6
f 41/105/7 86/228/7 83/219/7 43/111/7
f 71/184/8 59/153/8 41/106/8 54/140/8
f 86/229/6 67/173/6 69/179/6 83/220/6
f 45/117/1 85/226/1 59/154/1
f 49/125/2 85/227/2 84/223/2 51/131/2
f 56/146/4 73/189/4 71/185/4 54/141/4
f 59/155/2 71/185/2 73/190/2 60/156/2
f 56/147/1 43/112/1 60/157/1 73/191/1
f 76/199/1 2/4/1 6/15/1 81/215/1
f 6/15/2 81/215/2 80/211/2 14/31/2
f 14/31/1 80/211/1 77/203/1 10/23/1
f 10/23/2 2/5/2 76/201/2 77/203/2
f 6/16/3 14/31/3 10/23/3 2/6/3
f 68/176/3 66/170/3 50/128/3 52/134/3
f 70/183/2 88/234/2 52/135/2 50/129/2
f 88/233/8 48/123/8 61/159/8
f 42/110/6 44/116/6 57/148/6 55/143/6
f 66/171/6 68/177/6 87/232/6 53/138/6
f 65/168/1 68/178/1 52/136/1 48/124/1
f 46/119/8 50/130/8 66/172/8 62/162/8
f 87/231/8 44/114/8 65/169/8
f 58/152/2 72/187/2 74/193/2 61/161/2
f 74/194/1 57/149/1 44/115/1 61/160/1
f 72/188/8 58/150/8 42/108/8 55/144/8
f 67/174/3 49/126/3 51/132/3 69/180/3
f 83/221/8 43/113/8 64/166/8
f 51/133/1 47/121/1 64/167/1 69/181/1
f 47/122/1 84/224/1 60/158/1
f 41/107/1 86/230/1 63/164/1
f 45/118/8 49/127/8 67/175/8 63/165/8
f 70/182/8 46/120/8 58/151/8
f 58/152/5 61/161/5 88/234/5 70/183/5
f 42/109/1 53/137/1 62/163/1
f 42/110/7 53/138/7 87/232/7 44/116/7
usemtl Material.001
f 23/55/1 24/58/1 22/52/1 21/49/1
f 32/80/2 31/78/2 27/67/2 28/70/2
f 31/79/1 32/81/1 30/75/1 29/73/1
f 36/92/2 40/102/2 39/100/2 35/89/2
f 39/101/1 40/103/1 38/97/1 37/95/1
f 17/37/8 18/40/8 20/46/8 19/43/8
f 18/41/6 17/38/6 21/50/6 22/53/6
f 24/59/4 20/47/4 18/42/4 22/54/4
f 24/60/2 23/56/2 19/44/2 20/48/2
f 26/64/4 30/76/4 32/82/4 28/71/4
f 25/61/8 26/65/8 28/72/8 27/68/8
f 40/104/4 36/93/4 34/86/4 38/98/4
f 31/79/3 29/73/3 25/62/3 27/69/3
f 35/90/3 39/101/3 37/95/3 33/83/3
f 19/45/3 23/57/3 21/51/3 17/39/3
f 33/84/8 34/87/8 36/94/8 35/91/8
f 30/77/6 26/66/6 25/63/6 29/74/6
f 34/88/6 33/85/6 37/96/6 38/99/6
usemtl Material.002
f 82/218/1 7/18/1 3/7/1 75/196/1
f 3/8/2 11/24/2 78/207/2 75/198/2
f 15/32/4 7/17/4 3/9/4 11/25/4
f 78/208/1 79/210/1 15/33/1 11/26/1
f 79/210/2 82/218/2 7/18/2 15/33/2
f 81/214/1 8/19/1 4/10/1 76/200/1
f 4/11/2 12/27/2 77/204/2 76/202/2
f 16/34/4 8/20/4 4/12/4 12/28/4
f 77/205/1 80/212/1 16/35/1 12/29/1
f 80/213/2 81/216/2 8/21/2 16/36/2
