# Blender 3.5.0
# www.blender.org
mtllib road_block_pole.mtl
o Cylinder
v 0.047125 2.636046 0.236912
v 0.044292 2.785509 0.222670
v 0.092439 2.636046 0.223166
v 0.086882 2.785509 0.209751
v 0.134200 2.636046 0.200844
v 0.126132 2.785509 0.188771
v 0.170804 2.636046 0.170804
v 0.160536 2.785509 0.160536
v 0.200844 2.636046 0.134200
v 0.188771 2.785509 0.126132
v 0.223166 2.636046 0.092439
v 0.209751 2.785509 0.086882
v 0.236912 2.636046 0.047125
v 0.222670 2.785509 0.044292
v 0.241554 2.636046 0.000000
v 0.227032 2.785509 0.000000
v 0.236912 2.636046 -0.047125
v 0.222670 2.785509 -0.044292
v 0.223166 2.636046 -0.092439
v 0.209751 2.785509 -0.086882
v 0.200844 2.636046 -0.134200
v 0.188771 2.785509 -0.126132
v 0.170804 2.636046 -0.170804
v 0.160536 2.785509 -0.160536
v 0.134200 2.636046 -0.200844
v 0.126132 2.785509 -0.188771
v 0.092439 2.636046 -0.223166
v 0.086882 2.785509 -0.209751
v 0.000000 2.785509 -0.227032
v 0.000000 2.636046 -0.241554
v 0.047125 2.636046 -0.236912
v 0.044292 2.785509 -0.222670
v 0.000000 0.127518 -0.220992
v 0.043113 0.127518 -0.216746
v 0.084570 0.127518 -0.204170
v 0.122777 0.127518 -0.183748
v 0.156265 0.127518 -0.156265
v 0.183748 0.127518 -0.122777
v 0.204170 0.127518 -0.084570
v 0.216746 0.127518 -0.043113
v 0.220992 0.127518 0.000000
v 0.216746 0.127518 0.043113
v 0.204170 0.127518 0.084570
v 0.183748 0.127518 0.122777
v 0.156265 0.127518 0.156265
v 0.122777 0.127518 0.183748
v 0.084570 0.127518 0.204170
v 0.043113 0.127518 0.216746
v 0.000000 0.127518 0.220992
v -0.043113 0.127518 0.216746
v -0.084570 0.127518 0.204170
v -0.122777 0.127518 0.183748
v -0.156265 0.127518 0.156265
v -0.183748 0.127518 0.122777
v -0.204170 0.127518 0.084570
v -0.216746 0.127518 0.043113
v -0.220992 0.127518 0.000000
v -0.216746 0.127518 -0.043113
v -0.204170 0.127518 -0.084570
v -0.183748 0.127518 -0.122777
v -0.156265 0.127518 -0.156265
v -0.122777 0.127518 -0.183748
v -0.084570 0.127518 -0.204170
v -0.043113 0.127518 -0.216746
v 0.000000 0.024901 -0.277356
v 0.054109 0.024901 -0.272027
v 0.054109 0.139124 -0.272027
v 0.106140 0.024901 -0.256244
v 0.106140 0.139124 -0.256244
v 0.154091 0.024901 -0.230613
v 0.154091 0.139124 -0.230613
v 0.196120 0.024901 -0.196120
v 0.196120 0.139124 -0.196120
v 0.230613 0.024901 -0.154091
v 0.230613 0.139124 -0.154091
v 0.256244 0.024901 -0.106140
v 0.256244 0.139124 -0.106140
v 0.272027 0.024901 -0.054109
v 0.272027 0.139124 -0.054109
v 0.277356 0.024901 0.000000
v 0.277356 0.139124 0.000000
v 0.272027 0.024901 0.054109
v 0.272027 0.139124 0.054109
v 0.256244 0.024901 0.106140
v 0.256244 0.139124 0.106140
v 0.230613 0.024901 0.154091
v 0.230613 0.139124 0.154091
v 0.196120 0.024901 0.196120
v 0.196120 0.139124 0.196120
v 0.154091 0.024901 0.230613
v 0.154091 0.139124 0.230613
v 0.106140 0.024901 0.256244
v 0.106140 0.139124 0.256244
v 0.054109 0.024901 0.272027
v 0.054109 0.139124 0.272027
v 0.000000 0.024901 0.277356
v 0.000000 0.139124 0.277356
v -0.054109 0.024901 0.272027
v -0.054109 0.139124 0.272027
v -0.106140 0.024901 0.256244
v -0.106140 0.139124 0.256244
v -0.154091 0.024901 0.230613
v -0.154091 0.139124 0.230613
v -0.196120 0.024901 0.196120
v -0.196120 0.139124 0.196120
v -0.230613 0.024901 0.154091
v -0.230613 0.139124 0.154091
v -0.256244 0.024901 0.106140
v -0.256244 0.139124 0.106140
v -0.272027 0.024901 0.054109
v -0.272027 0.139124 0.054109
v -0.277356 0.024901 0.000000
v -0.277356 0.139124 0.000000
v -0.272027 0.024901 -0.054109
v -0.272027 0.139124 -0.054109
v -0.256244 0.024901 -0.106140
v -0.256244 0.139124 -0.106140
v -0.230613 0.024901 -0.154091
v -0.230613 0.139124 -0.154091
v -0.196120 0.024901 -0.196120
v -0.196120 0.139124 -0.196120
v -0.154091 0.024901 -0.230613
v -0.154091 0.139124 -0.230613
v -0.106140 0.024901 -0.256244
v -0.106140 0.139124 -0.256244
v -0.054109 0.024901 -0.272027
v -0.054109 0.139124 -0.272027
v 0.000000 0.139124 -0.277356
v 0.000000 2.639780 -0.220992
v 0.043113 2.639780 -0.216746
v 0.084570 2.639780 -0.204170
v 0.122777 2.639780 -0.183748
v 0.156265 2.639780 -0.156265
v 0.183748 2.639780 -0.122777
v 0.204170 2.639780 -0.084570
v 0.216746 2.639780 -0.043113
v 0.220992 2.639780 0.000000
v 0.216746 2.639780 0.043113
v 0.204170 2.639780 0.084570
v 0.183748 2.639780 0.122777
v 0.156265 2.639780 0.156265
v 0.122777 2.639780 0.183748
v 0.084570 2.639780 0.204170
v 0.043113 2.639780 0.216746
v 0.000000 2.639780 0.220992
v -0.043113 2.639780 0.216746
v -0.084570 2.639780 0.204170
v -0.122777 2.639780 0.183748
v -0.156265 2.639780 0.156265
v -0.183748 2.639780 0.122777
v -0.204170 2.639780 0.084570
v -0.216746 2.639780 0.043113
v -0.220992 2.639780 0.000000
v -0.216746 2.639780 -0.043113
v -0.204170 2.639780 -0.084570
v -0.183748 2.639780 -0.122777
v -0.156265 2.639780 -0.156265
v -0.122777 2.639780 -0.183748
v -0.084570 2.639780 -0.204170
v -0.043113 2.639780 -0.216746
v 0.000000 2.785509 0.227032
v 0.000000 2.636046 0.241554
v -0.044292 2.785509 0.222670
v -0.047125 2.636046 0.236912
v -0.086882 2.785509 0.209751
v -0.092439 2.636046 0.223166
v -0.126132 2.785509 0.188771
v -0.134200 2.636046 0.200844
v -0.160536 2.785509 0.160536
v -0.170804 2.636046 0.170804
v -0.188771 2.785509 0.126132
v -0.200844 2.636046 0.134200
v -0.209751 2.785509 0.086882
v -0.223166 2.636046 0.092439
v -0.222670 2.785509 0.044292
v -0.236912 2.636046 0.047125
v -0.227032 2.785509 0.000000
v -0.241553 2.636046 0.000000
v -0.222670 2.785509 -0.044292
v -0.236912 2.636046 -0.047125
v -0.209751 2.785509 -0.086882
v -0.223166 2.636046 -0.092439
v -0.188771 2.785509 -0.126132
v -0.200844 2.636046 -0.134200
v -0.160536 2.785509 -0.160536
v -0.170804 2.636046 -0.170804
v -0.126132 2.785509 -0.188771
v -0.134200 2.636046 -0.200844
v -0.086882 2.785509 -0.209751
v -0.092439 2.636046 -0.223166
v -0.044292 2.785509 -0.222670
v -0.047125 2.636046 -0.236912
vn -0.0980 -0.0000 -0.9952
vn 0.4714 -0.0000 -0.8819
vn 0.6344 -0.0000 -0.7730
vn 0.7730 -0.0000 -0.6344
vn 0.8819 -0.0000 -0.4714
vn 0.9569 -0.0000 -0.2903
vn 0.9952 -0.0000 -0.0980
vn 0.9952 -0.0000 0.0980
vn 0.9569 -0.0000 0.2903
vn 0.8819 -0.0000 0.4714
vn 0.7730 -0.0000 0.6344
vn 0.6344 -0.0000 0.7730
vn 0.4714 -0.0000 0.8819
vn 0.2903 -0.0000 0.9569
vn 0.0980 -0.0000 0.9952
vn -0.0980 -0.0000 0.9952
vn -0.2903 -0.0000 0.9569
vn -0.4714 -0.0000 0.8819
vn -0.6344 -0.0000 0.7730
vn -0.7730 -0.0000 0.6344
vn -0.8819 -0.0000 0.4714
vn -0.9569 -0.0000 0.2903
vn -0.9952 -0.0000 0.0980
vn -0.9952 -0.0000 -0.0980
vn -0.9569 -0.0000 -0.2903
vn -0.8819 -0.0000 -0.4714
vn -0.7730 -0.0000 -0.6344
vn -0.6344 -0.0000 -0.7730
vn -0.4714 -0.0000 -0.8819
vn -0.2903 -0.0000 -0.9569
vn 0.0980 -0.0000 -0.9952
vn 0.0976 0.0962 -0.9906
vn 0.2903 -0.0000 -0.9569
vn 0.2016 0.9793 -0.0199
vn -0.1787 0.9793 -0.0955
vn 0.2016 0.9793 0.0199
vn -0.1566 0.9793 -0.1285
vn 0.1939 0.9793 0.0588
vn -0.1285 0.9793 -0.1566
vn 0.1787 0.9793 0.0955
vn -0.0955 0.9793 -0.1787
vn -0.0199 0.9793 0.2016
vn 0.1566 0.9793 0.1285
vn -0.0588 0.9793 -0.1939
vn -0.0588 0.9793 0.1939
vn 0.1285 0.9793 0.1566
vn -0.0199 0.9793 -0.2016
vn -0.0955 0.9793 0.1787
vn 0.0955 0.9793 0.1787
vn 0.0199 0.9793 -0.2016
vn -0.1285 0.9793 0.1566
vn 0.0588 0.9793 0.1939
vn 0.0588 0.9793 -0.1939
vn -0.1566 0.9793 0.1285
vn 0.0199 0.9793 0.2016
vn 0.0955 0.9793 -0.1787
vn -0.1787 0.9793 0.0955
vn 0.1285 0.9793 -0.1566
vn -0.1939 0.9793 0.0588
vn 0.1566 0.9793 -0.1285
vn -0.2016 0.9793 0.0199
vn 0.1787 0.9793 -0.0955
vn -0.2016 0.9793 -0.0199
vn 0.1939 0.9793 -0.0588
vn -0.1939 0.9793 -0.0588
vn -0.0000 -1.0000 -0.0000
vn 0.0846 -0.9838 0.1583
vn 0.1388 -0.9838 -0.1139
vn -0.1388 -0.9838 -0.1139
vn -0.0846 -0.9838 0.1583
vn 0.1787 -0.9838 0.0176
vn -0.0176 -0.9838 -0.1787
vn -0.1718 -0.9838 0.0521
vn 0.1139 -0.9838 0.1388
vn 0.1139 -0.9838 -0.1388
vn -0.1583 -0.9838 -0.0846
vn -0.0521 -0.9838 0.1718
vn 0.1787 -0.9838 -0.0176
vn -0.0521 -0.9838 -0.1718
vn -0.1583 -0.9838 0.0846
vn 0.1388 -0.9838 0.1139
vn 0.0846 -0.9838 -0.1583
vn -0.1718 -0.9838 -0.0521
vn -0.0176 -0.9838 0.1787
vn 0.1718 -0.9838 -0.0521
vn -0.0846 -0.9838 -0.1583
vn -0.1388 -0.9838 0.1139
vn 0.0176 -0.9838 0.1787
vn 0.1583 -0.9838 0.0846
vn 0.0521 -0.9838 -0.1718
vn -0.1787 -0.9838 -0.0176
vn 0.0521 -0.9838 0.1718
vn 0.1583 -0.9838 -0.0846
vn -0.1139 -0.9838 -0.1388
vn -0.1139 -0.9838 0.1388
vn 0.1718 -0.9838 0.0521
vn 0.0176 -0.9838 -0.1787
vn -0.1787 -0.9838 0.0176
vn 0.2889 0.0962 -0.9525
vn 0.4692 0.0962 -0.8778
vn 0.6314 0.0962 -0.7694
vn 0.7694 0.0962 -0.6314
vn 0.8778 0.0962 -0.4692
vn 0.9525 0.0962 -0.2889
vn 0.9906 0.0962 -0.0976
vn 0.9906 0.0962 0.0976
vn 0.9525 0.0962 0.2889
vn 0.8778 0.0962 0.4692
vn 0.7694 0.0962 0.6314
vn 0.6314 0.0962 0.7694
vn 0.4692 0.0962 0.8778
vn 0.2889 0.0962 0.9525
vn 0.0976 0.0962 0.9906
vn -0.0976 0.0962 0.9906
vn -0.2889 0.0962 0.9525
vn -0.4692 0.0962 0.8778
vn -0.6314 0.0962 0.7694
vn -0.7694 0.0962 0.6314
vn -0.8778 0.0962 0.4692
vn -0.9525 0.0962 0.2889
vn -0.9906 0.0962 0.0976
vn -0.9906 0.0962 -0.0976
vn -0.9525 0.0962 -0.2889
vn -0.8778 0.0962 -0.4692
vn -0.7694 0.0962 -0.6314
vn -0.6314 0.0962 -0.7694
vn -0.4692 0.0962 -0.8778
vn -0.2889 0.0962 -0.9525
vn -0.0976 0.0962 -0.9906
vn -0.0000 1.0000 -0.0000
vt 0.531250 0.985044
vt 0.296822 0.014612
vt 0.294007 0.028762
vt 0.562500 0.985044
vt 0.341844 0.028269
vt 0.336323 0.041598
vt 0.593750 0.985044
vt 0.383337 0.050447
vt 0.375321 0.062443
vt 0.625000 0.985044
vt 0.419706 0.080294
vt 0.409504 0.090496
vt 0.656250 0.985044
vt 0.449553 0.116663
vt 0.437557 0.124679
vt 0.687500 0.985044
vt 0.471731 0.158156
vt 0.458402 0.163677
vt 0.718750 0.985044
vt 0.485388 0.203178
vt 0.471238 0.205993
vt 0.750000 0.985044
vt 0.490000 0.250000
vt 0.475572 0.250000
vt 0.781250 0.985044
vt 0.485388 0.296822
vt 0.471238 0.294007
vt 0.812500 0.985044
vt 0.471731 0.341844
vt 0.458402 0.336323
vt 0.843750 0.985044
vt 0.449553 0.383337
vt 0.437557 0.375321
vt 0.875000 0.985044
vt 0.419706 0.419706
vt 0.409504 0.409504
vt 0.906250 0.985044
vt 0.383337 0.449553
vt 0.375321 0.437557
vt 0.937500 0.985044
vt 0.341844 0.471731
vt 0.336323 0.458402
vt 0.250000 0.475573
vt 1.000000 0.985044
vt 0.000000 0.985044
vt 0.250000 0.490000
vt 0.968750 0.985044
vt 0.296822 0.485388
vt 0.294007 0.471238
vt 1.000000 0.516957
vt 0.000000 0.516957
vt 0.968750 0.516957
vt 0.937500 0.516957
vt 0.906250 0.516957
vt 0.875000 0.516957
vt 0.843750 0.516957
vt 0.812500 0.516957
vt 0.781250 0.516957
vt 0.750000 0.516957
vt 0.718750 0.516957
vt 0.687500 0.516957
vt 0.656250 0.516957
vt 0.625000 0.516957
vt 0.593750 0.516957
vt 0.562500 0.516957
vt 0.531250 0.516957
vt 0.500000 0.516957
vt 0.468750 0.516957
vt 0.437500 0.516957
vt 0.406250 0.516957
vt 0.375000 0.516957
vt 0.343750 0.516957
vt 0.312500 0.516957
vt 0.281250 0.516957
vt 0.250000 0.516957
vt 0.218750 0.516957
vt 0.187500 0.516957
vt 0.156250 0.516957
vt 0.125000 0.516957
vt 0.093750 0.516957
vt 0.062500 0.516957
vt 0.031250 0.516957
vt 0.750000 0.490000
vt 0.000000 0.500000
vt 1.000000 0.500000
vt 0.796822 0.485388
vt 0.968750 0.500000
vt 0.968750 0.516957
vt 0.841844 0.471731
vt 0.937500 0.500000
vt 0.937500 0.516957
vt 0.883337 0.449553
vt 0.906250 0.500000
vt 0.906250 0.516957
vt 0.919706 0.419706
vt 0.875000 0.500000
vt 0.875000 0.516957
vt 0.949553 0.383337
vt 0.843750 0.500000
vt 0.843750 0.516957
vt 0.971731 0.341844
vt 0.812500 0.500000
vt 0.812500 0.516957
vt 0.985388 0.296822
vt 0.781250 0.500000
vt 0.781250 0.516957
vt 0.990000 0.250000
vt 0.750000 0.500000
vt 0.750000 0.516957
vt 0.985388 0.203178
vt 0.718750 0.500000
vt 0.718750 0.516957
vt 0.971731 0.158156
vt 0.687500 0.500000
vt 0.687500 0.516957
vt 0.949553 0.116663
vt 0.656250 0.500000
vt 0.656250 0.516957
vt 0.919706 0.080294
vt 0.625000 0.500000
vt 0.625000 0.516957
vt 0.883337 0.050447
vt 0.593750 0.500000
vt 0.593750 0.516957
vt 0.841844 0.028269
vt 0.562500 0.500000
vt 0.562500 0.516957
vt 0.796822 0.014612
vt 0.531250 0.500000
vt 0.531250 0.516957
vt 0.750000 0.010000
vt 0.500000 0.500000
vt 0.500000 0.516957
vt 0.703178 0.014612
vt 0.468750 0.500000
vt 0.468750 0.516957
vt 0.658156 0.028269
vt 0.437500 0.500000
vt 0.437500 0.516957
vt 0.616663 0.050447
vt 0.406250 0.500000
vt 0.406250 0.516957
vt 0.580294 0.080294
vt 0.375000 0.500000
vt 0.375000 0.516957
vt 0.550447 0.116663
vt 0.343750 0.500000
vt 0.343750 0.516957
vt 0.528269 0.158156
vt 0.312500 0.500000
vt 0.312500 0.516957
vt 0.514612 0.203178
vt 0.281250 0.500000
vt 0.281250 0.516957
vt 0.510000 0.250000
vt 0.250000 0.500000
vt 0.250000 0.516957
vt 0.514612 0.296822
vt 0.218750 0.500000
vt 0.218750 0.516957
vt 0.528269 0.341844
vt 0.187500 0.500000
vt 0.187500 0.516957
vt 0.550447 0.383337
vt 0.156250 0.500000
vt 0.156250 0.516957
vt 0.580294 0.419706
vt 0.125000 0.500000
vt 0.125000 0.516957
vt 0.616663 0.449553
vt 0.093750 0.500000
vt 0.093750 0.516957
vt 0.658156 0.471731
vt 0.062500 0.500000
vt 0.062500 0.516957
vt 0.703178 0.485388
vt 0.031250 0.500000
vt 0.031250 0.516957
vt 0.000000 0.516957
vt 1.000000 0.516957
vt 1.000000 0.985044
vt 0.000000 0.985044
vt 0.968750 0.985044
vt 0.937500 0.985044
vt 0.906250 0.985044
vt 0.875000 0.985044
vt 0.843750 0.985044
vt 0.812500 0.985044
vt 0.781250 0.985044
vt 0.750000 0.985044
vt 0.718750 0.985044
vt 0.687500 0.985044
vt 0.656250 0.985044
vt 0.625000 0.985044
vt 0.593750 0.985044
vt 0.562500 0.985044
vt 0.531250 0.985044
vt 0.500000 0.985044
vt 0.468750 0.985044
vt 0.437500 0.985044
vt 0.406250 0.985044
vt 0.375000 0.985044
vt 0.343750 0.985044
vt 0.312500 0.985044
vt 0.281250 0.985044
vt 0.250000 0.985044
vt 0.218750 0.985044
vt 0.187500 0.985044
vt 0.156250 0.985044
vt 0.125000 0.985044
vt 0.093750 0.985044
vt 0.062500 0.985044
vt 0.031250 0.985044
vt 0.250000 0.024428
vt 0.500000 0.985044
vt 0.250000 0.010000
vt 0.205993 0.028762
vt 0.468750 0.985044
vt 0.203178 0.014612
vt 0.163677 0.041598
vt 0.437500 0.985044
vt 0.158156 0.028269
vt 0.124679 0.062443
vt 0.406250 0.985044
vt 0.116663 0.050447
vt 0.090496 0.090496
vt 0.375000 0.985044
vt 0.080294 0.080294
vt 0.062443 0.124679
vt 0.343750 0.985044
vt 0.050447 0.116663
vt 0.041598 0.163677
vt 0.312500 0.985044
vt 0.028269 0.158156
vt 0.028762 0.205993
vt 0.281250 0.985044
vt 0.014612 0.203178
vt 0.024428 0.250000
vt 0.250000 0.985044
vt 0.010000 0.250000
vt 0.028762 0.294007
vt 0.218750 0.985044
vt 0.014612 0.296822
vt 0.041598 0.336323
vt 0.187500 0.985044
vt 0.028269 0.341844
vt 0.062443 0.375321
vt 0.156250 0.985044
vt 0.050447 0.383337
vt 0.090496 0.409504
vt 0.125000 0.985044
vt 0.080294 0.419706
vt 0.124679 0.437557
vt 0.093750 0.985044
vt 0.116663 0.449553
vt 0.163677 0.458402
vt 0.062500 0.985044
vt 0.158156 0.471731
vt 0.205993 0.471238
vt 0.031250 0.985044
vt 0.203178 0.485388
s 0
f 64/82/1 160/213/1 129/182/1 33/51/1
f 35/53/2 131/184/2 132/185/2 36/54/2
f 36/54/3 132/185/3 133/186/3 37/55/3
f 37/55/4 133/186/4 134/187/4 38/56/4
f 38/56/5 134/187/5 135/188/5 39/57/5
f 39/57/6 135/188/6 136/189/6 40/58/6
f 40/58/7 136/189/7 137/190/7 41/59/7
f 41/59/8 137/190/8 138/191/8 42/60/8
f 42/60/9 138/191/9 139/192/9 43/61/9
f 43/61/10 139/192/10 140/193/10 44/62/10
f 44/62/11 140/193/11 141/194/11 45/63/11
f 45/63/12 141/194/12 142/195/12 46/64/12
f 46/64/13 142/195/13 143/196/13 47/65/13
f 47/65/14 143/196/14 144/197/14 48/66/14
f 48/66/15 144/197/15 145/198/15 49/67/15
f 49/67/16 145/198/16 146/199/16 50/68/16
f 50/68/17 146/199/17 147/200/17 51/69/17
f 51/69/18 147/200/18 148/201/18 52/70/18
f 52/70/19 148/201/19 149/202/19 53/71/19
f 53/71/20 149/202/20 150/203/20 54/72/20
f 54/72/21 150/203/21 151/204/21 55/73/21
f 55/73/22 151/204/22 152/205/22 56/74/22
f 56/74/23 152/205/23 153/206/23 57/75/23
f 57/75/24 153/206/24 154/207/24 58/76/24
f 58/76/25 154/207/25 155/208/25 59/77/25
f 59/77/26 155/208/26 156/209/26 60/78/26
f 60/78/27 156/209/27 157/210/27 61/79/27
f 61/79/28 157/210/28 158/211/28 62/80/28
f 62/80/29 158/211/29 159/212/29 63/81/29
f 63/81/30 159/212/30 160/213/30 64/82/30
f 33/50/31 129/181/31 130/183/31 34/52/31
f 31/48/32 30/46/32 29/43/32 32/49/32
f 34/52/33 130/183/33 131/184/33 35/53/33
f 56/74/34 57/75/34 113/157/34 111/154/34
f 43/61/35 44/62/35 87/118/35 85/115/35
f 57/75/36 58/76/36 115/160/36 113/157/36
f 44/62/37 45/63/37 89/121/37 87/118/37
f 58/76/38 59/77/38 117/163/38 115/160/38
f 45/63/39 46/64/39 91/124/39 89/121/39
f 59/77/40 60/78/40 119/166/40 117/163/40
f 46/64/41 47/65/41 93/127/41 91/124/41
f 33/50/42 34/52/42 67/88/42 128/180/42
f 60/78/43 61/79/43 121/169/43 119/166/43
f 47/65/44 48/66/44 95/130/44 93/127/44
f 34/52/45 35/53/45 69/91/45 67/88/45
f 61/79/46 62/80/46 123/172/46 121/169/46
f 48/66/47 49/67/47 97/133/47 95/130/47
f 35/53/48 36/54/48 71/94/48 69/91/48
f 62/80/49 63/81/49 125/175/49 123/172/49
f 49/67/50 50/68/50 99/136/50 97/133/50
f 36/54/51 37/55/51 73/97/51 71/94/51
f 63/81/52 64/82/52 127/178/52 125/175/52
f 50/68/53 51/69/53 101/139/53 99/136/53
f 37/55/54 38/56/54 75/100/54 73/97/54
f 64/82/55 33/51/55 128/179/55 127/178/55
f 51/69/56 52/70/56 103/142/56 101/139/56
f 38/56/57 39/57/57 77/103/57 75/100/57
f 52/70/58 53/71/58 105/145/58 103/142/58
f 39/57/59 40/58/59 79/106/59 77/103/59
f 53/71/60 54/72/60 107/148/60 105/145/60
f 40/58/61 41/59/61 81/109/61 79/106/61
f 54/72/62 55/73/62 109/151/62 107/148/62
f 41/59/63 42/60/63 83/112/63 81/109/63
f 55/73/64 56/74/64 111/154/64 109/151/64
f 42/60/65 43/61/65 85/115/65 83/112/65
f 65/83/66 66/86/66 68/89/66 70/92/66 72/95/66 74/98/66 76/101/66 78/104/66 80/107/66 82/110/66 84/113/66 86/116/66 88/119/66 90/122/66 92/125/66 94/128/66 96/131/66 98/134/66 100/137/66 102/140/66 104/143/66 106/146/66 108/149/66 110/152/66 112/155/66 114/158/66 116/161/66 118/164/66 120/167/66 122/170/66 124/173/66 126/176/66
f 126/177/1 127/178/1 128/179/1 65/84/1
f 124/174/30 125/175/30 127/178/30 126/177/30
f 122/171/29 123/172/29 125/175/29 124/174/29
f 120/168/28 121/169/28 123/172/28 122/171/28
f 118/165/27 119/166/27 121/169/27 120/168/27
f 116/162/26 117/163/26 119/166/26 118/165/26
f 114/159/25 115/160/25 117/163/25 116/162/25
f 112/156/24 113/157/24 115/160/24 114/159/24
f 110/153/23 111/154/23 113/157/23 112/156/23
f 108/150/22 109/151/22 111/154/22 110/153/22
f 106/147/21 107/148/21 109/151/21 108/150/21
f 104/144/20 105/145/20 107/148/20 106/147/20
f 102/141/19 103/142/19 105/145/19 104/144/19
f 100/138/18 101/139/18 103/142/18 102/141/18
f 98/135/17 99/136/17 101/139/17 100/138/17
f 96/132/16 97/133/16 99/136/16 98/135/16
f 94/129/15 95/130/15 97/133/15 96/132/15
f 92/126/14 93/127/14 95/130/14 94/129/14
f 90/123/13 91/124/13 93/127/13 92/126/13
f 88/120/12 89/121/12 91/124/12 90/123/12
f 86/117/11 87/118/11 89/121/11 88/120/11
f 84/114/10 85/115/10 87/118/10 86/117/10
f 82/111/9 83/112/9 85/115/9 84/114/9
f 80/108/8 81/109/8 83/112/8 82/111/8
f 78/105/7 79/106/7 81/109/7 80/108/7
f 76/102/6 77/103/6 79/106/6 78/105/6
f 74/99/5 75/100/5 77/103/5 76/102/5
f 72/96/4 73/97/4 75/100/4 74/99/4
f 70/93/3 71/94/3 73/97/3 72/96/3
f 68/90/2 69/91/2 71/94/2 70/93/2
f 66/87/33 67/88/33 69/91/33 68/90/33
f 65/85/31 128/180/31 67/88/31 66/87/31
f 159/212/67 158/211/67 188/254/67 190/257/67
f 150/203/68 149/202/68 170/227/68 172/230/68
f 141/194/69 140/193/69 9/13/69 7/10/69
f 132/185/70 131/184/70 27/40/70 25/37/70
f 154/207/71 153/206/71 178/239/71 180/242/71
f 145/198/72 144/197/72 1/1/72 162/215/72
f 136/189/73 135/188/73 19/28/73 17/25/73
f 158/211/74 157/210/74 186/251/74 188/254/74
f 149/202/75 148/201/75 168/224/75 170/227/75
f 140/193/76 139/192/76 11/16/76 9/13/76
f 131/184/77 130/183/77 31/47/77 27/40/77
f 153/206/78 152/205/78 176/236/78 178/239/78
f 144/197/79 143/196/79 3/4/79 1/1/79
f 135/188/80 134/187/80 21/31/80 19/28/80
f 157/210/81 156/209/81 184/248/81 186/251/81
f 148/201/82 147/200/82 166/221/82 168/224/82
f 139/192/83 138/191/83 13/19/83 11/16/83
f 130/183/84 129/181/84 30/44/84 31/47/84
f 152/205/85 151/204/85 174/233/85 176/236/85
f 143/196/86 142/195/86 5/7/86 3/4/86
f 134/187/87 133/186/87 23/34/87 21/31/87
f 129/182/88 160/213/88 192/260/88 30/45/88
f 156/209/89 155/208/89 182/245/89 184/248/89
f 147/200/90 146/199/90 164/218/90 166/221/90
f 138/191/91 137/190/91 15/22/91 13/19/91
f 160/213/92 159/212/92 190/257/92 192/260/92
f 151/204/93 150/203/93 172/230/93 174/233/93
f 142/195/94 141/194/94 7/10/94 5/7/94
f 133/186/95 132/185/95 25/37/95 23/34/95
f 155/208/96 154/207/96 180/242/96 182/245/96
f 146/199/97 145/198/97 162/215/97 164/218/97
f 137/190/98 136/189/98 17/25/98 15/22/98
f 27/41/99 31/48/99 32/49/99 28/42/99
f 25/38/100 27/41/100 28/42/100 26/39/100
f 23/35/101 25/38/101 26/39/101 24/36/101
f 21/32/102 23/35/102 24/36/102 22/33/102
f 19/29/103 21/32/103 22/33/103 20/30/103
f 17/26/104 19/29/104 20/30/104 18/27/104
f 15/23/105 17/26/105 18/27/105 16/24/105
f 13/20/106 15/23/106 16/24/106 14/21/106
f 11/17/107 13/20/107 14/21/107 12/18/107
f 9/14/108 11/17/108 12/18/108 10/15/108
f 7/11/109 9/14/109 10/15/109 8/12/109
f 5/8/110 7/11/110 8/12/110 6/9/110
f 3/5/111 5/8/111 6/9/111 4/6/111
f 1/2/112 3/5/112 4/6/112 2/3/112
f 162/216/113 1/2/113 2/3/113 161/214/113
f 164/219/114 162/216/114 161/214/114 163/217/114
f 166/222/115 164/219/115 163/217/115 165/220/115
f 168/225/116 166/222/116 165/220/116 167/223/116
f 170/228/117 168/225/117 167/223/117 169/226/117
f 172/231/118 170/228/118 169/226/118 171/229/118
f 174/234/119 172/231/119 171/229/119 173/232/119
f 176/237/120 174/234/120 173/232/120 175/235/120
f 178/240/121 176/237/121 175/235/121 177/238/121
f 180/243/122 178/240/122 177/238/122 179/241/122
f 182/246/123 180/243/123 179/241/123 181/244/123
f 184/249/124 182/246/124 181/244/124 183/247/124
f 186/252/125 184/249/125 183/247/125 185/250/125
f 188/255/126 186/252/126 185/250/126 187/253/126
f 190/258/127 188/255/127 187/253/127 189/256/127
f 192/261/128 190/258/128 189/256/128 191/259/128
f 30/46/129 192/261/129 191/259/129 29/43/129
f 32/49/130 29/43/130 191/259/130 189/256/130 187/253/130 185/250/130 183/247/130 181/244/130 179/241/130 177/238/130 175/235/130 173/232/130 171/229/130 169/226/130 167/223/130 165/220/130 163/217/130 161/214/130 2/3/130 4/6/130 6/9/130 8/12/130 10/15/130 12/18/130 14/21/130 16/24/130 18/27/130 20/30/130 22/33/130 24/36/130 26/39/130 28/42/130
