# Blender 3.5.0
# www.blender.org
mtllib round_trash_can.mtl
o Cylinder
v 0.000000 -1.000000 -1.000000
v -0.000000 2.107811 -1.036783
v 0.195090 -1.000000 -0.980785
v 0.202266 2.107811 -1.016861
v 0.382683 -1.000000 -0.923880
v 0.396760 2.107811 -0.957862
v 0.555570 -1.000000 -0.831470
v 0.576006 2.107811 -0.862053
v 0.707107 -1.000000 -0.707107
v 0.733116 2.107811 -0.733116
v 0.831470 -1.000000 -0.555570
v 0.862053 2.107811 -0.576006
v 0.923880 -1.000000 -0.382683
v 0.957862 2.107811 -0.396760
v 0.980785 -1.000000 -0.195090
v 1.016861 2.107811 -0.202266
v 1.000000 -1.000000 0.000000
v 1.036783 2.107811 0.000000
v 0.980785 -1.000000 0.195090
v 1.016861 2.107811 0.202266
v 0.923880 -1.000000 0.382683
v 0.957862 2.107811 0.396760
v 0.831470 -1.000000 0.555570
v 0.862053 2.107811 0.576006
v 0.707107 -1.000000 0.707107
v 0.733116 2.107811 0.733116
v 0.555570 -1.000000 0.831470
v 0.576006 2.107811 0.862053
v 0.382683 -1.000000 0.923880
v 0.396760 2.107811 0.957862
v 0.195090 -1.000000 0.980785
v 0.202266 2.107811 1.016861
v 0.000000 -1.000000 1.000000
v -0.000000 2.107811 1.036783
v -0.195090 -1.000000 0.980785
v -0.202266 2.107811 1.016861
v -0.382683 -1.000000 0.923880
v -0.396760 2.107811 0.957862
v -0.555570 -1.000000 0.831470
v -0.576006 2.107811 0.862053
v -0.707107 -1.000000 0.707107
v -0.733116 2.107811 0.733116
v -0.831470 -1.000000 0.555570
v -0.862053 2.107811 0.576006
v -0.923880 -1.000000 0.382683
v -0.957862 2.107811 0.396760
v -0.980785 -1.000000 0.195090
v -1.016861 2.107811 0.202266
v -1.000000 -1.000000 0.000000
v -1.036783 2.107811 0.000000
v -0.980785 -1.000000 -0.195090
v -1.016861 2.107811 -0.202266
v -0.923880 -1.000000 -0.382683
v -0.957862 2.107811 -0.396760
v -0.831470 -1.000000 -0.555570
v -0.862053 2.107811 -0.576006
v -0.707107 -1.000000 -0.707107
v -0.733116 2.107811 -0.733116
v -0.555570 -1.000000 -0.831470
v -0.576006 2.107811 -0.862053
v -0.382683 -1.000000 -0.923880
v -0.396760 2.107811 -0.957862
v -0.195090 -1.000000 -0.980785
v -0.202266 2.107811 -1.016861
v 0.238710 2.107811 -1.200075
v -0.000000 2.107811 -1.223586
v 0.468246 2.107811 -1.130446
v 0.679788 2.107811 -1.017375
v 0.865206 2.107811 -0.865206
v 1.017375 2.107811 -0.679788
v 1.130446 2.107811 -0.468246
v 1.200075 2.107811 -0.238710
v 1.223586 2.107811 0.000000
v 1.200075 2.107811 0.238710
v 1.130446 2.107811 0.468246
v 1.017375 2.107811 0.679788
v 0.865206 2.107811 0.865206
v 0.679788 2.107811 1.017375
v 0.468246 2.107811 1.130446
v 0.238710 2.107811 1.200075
v -0.000000 2.107811 1.223586
v -0.238710 2.107811 1.200075
v -0.468246 2.107811 1.130446
v -0.679788 2.107811 1.017375
v -0.865206 2.107811 0.865206
v -1.017375 2.107811 0.679788
v -1.130446 2.107811 0.468246
v -1.200075 2.107811 0.238710
v -1.223586 2.107811 0.000000
v -1.200075 2.107811 -0.238710
v -1.130446 2.107811 -0.468246
v -1.017375 2.107811 -0.679788
v -0.865206 2.107811 -0.865206
v -0.679788 2.107811 -1.017375
v -0.468246 2.107811 -1.130446
v -0.238710 2.107811 -1.200075
v 0.202266 -0.546648 -1.016861
v -0.000000 -0.546648 -1.036783
v 0.396760 -0.546648 -0.957862
v 0.576006 -0.546648 -0.862053
v 0.733116 -0.546648 -0.733116
v 0.862053 -0.546648 -0.576006
v 0.957862 -0.546648 -0.396760
v 1.016861 -0.546648 -0.202266
v 1.036783 -0.546648 0.000000
v 1.016861 -0.546648 0.202266
v 0.957862 -0.546648 0.396760
v 0.862053 -0.546648 0.576006
v 0.733116 -0.546648 0.733116
v 0.576006 -0.546648 0.862053
v 0.396760 -0.546648 0.957862
v 0.202266 -0.546648 1.016861
v -0.000000 -0.546648 1.036783
v -0.202266 -0.546648 1.016861
v -0.396760 -0.546648 0.957862
v -0.576006 -0.546648 0.862053
v -0.733116 -0.546648 0.733116
v -0.862053 -0.546648 0.576006
v -0.957862 -0.546648 0.396760
v -1.016861 -0.546648 0.202266
v -1.036783 -0.546648 0.000000
v -1.016861 -0.546648 -0.202266
v -0.957862 -0.546648 -0.396760
v -0.862053 -0.546648 -0.576006
v -0.733116 -0.546648 -0.733116
v -0.576006 -0.546648 -0.862053
v -0.396760 -0.546648 -0.957862
v -0.202266 -0.546648 -1.016861
vn 0.0978 -0.0714 -0.9926
vn 0.2895 -0.0714 -0.9545
vn 0.4702 -0.0714 -0.8797
vn 0.6328 -0.0714 -0.7710
vn 0.7710 -0.0714 -0.6328
vn 0.8797 -0.0714 -0.4702
vn 0.9545 -0.0714 -0.2895
vn 0.9926 -0.0714 -0.0978
vn 0.9926 -0.0714 0.0978
vn 0.9545 -0.0714 0.2895
vn 0.8797 -0.0714 0.4702
vn 0.7710 -0.0714 0.6328
vn 0.6328 -0.0714 0.7710
vn 0.4702 -0.0714 0.8797
vn 0.2895 -0.0714 0.9545
vn 0.0978 -0.0714 0.9926
vn -0.0978 -0.0714 0.9926
vn -0.2895 -0.0714 0.9545
vn -0.4702 -0.0714 0.8797
vn -0.6328 -0.0714 0.7710
vn -0.7710 -0.0714 0.6328
vn -0.8797 -0.0714 0.4702
vn -0.9545 -0.0714 0.2895
vn -0.9926 -0.0714 0.0978
vn -0.9926 -0.0714 -0.0978
vn -0.9545 -0.0714 -0.2895
vn -0.8797 -0.0714 -0.4702
vn -0.7710 -0.0714 -0.6328
vn -0.6328 -0.0714 -0.7710
vn -0.4702 -0.0714 -0.8797
vn -0.4714 -0.0000 -0.8819
vn -0.2895 -0.0714 -0.9545
vn -0.0978 -0.0714 -0.9926
vn -0.0000 -1.0000 -0.0000
vn -0.0000 1.0000 -0.0000
vn -0.0980 -0.0000 0.9952
vn 0.7730 -0.0000 0.6344
vn -0.2903 -0.0000 -0.9569
vn -0.2903 -0.0000 0.9569
vn 0.6344 -0.0000 0.7730
vn -0.0980 -0.0000 -0.9952
vn -0.4714 -0.0000 0.8819
vn 0.4714 -0.0000 0.8819
vn 0.0980 -0.0000 -0.9952
vn -0.6344 -0.0000 0.7730
vn 0.2903 -0.0000 0.9569
vn 0.2903 -0.0000 -0.9569
vn -0.7730 -0.0000 0.6344
vn 0.0980 -0.0000 0.9952
vn 0.4714 -0.0000 -0.8819
vn -0.8819 -0.0000 0.4714
vn 0.6344 -0.0000 -0.7730
vn -0.9569 -0.0000 0.2903
vn 0.7730 -0.0000 -0.6344
vn -0.9952 -0.0000 0.0980
vn 0.8819 -0.0000 -0.4714
vn -0.9952 -0.0000 -0.0980
vn 0.9569 -0.0000 -0.2903
vn -0.9569 -0.0000 -0.2903
vn 0.9952 -0.0000 -0.0980
vn -0.8819 -0.0000 -0.4714
vn 0.9952 -0.0000 0.0980
vn -0.7730 -0.0000 -0.6344
vn 0.9569 -0.0000 0.2903
vn -0.6344 -0.0000 -0.7730
vn 0.8819 -0.0000 0.4714
vt 1.000000 0.500000
vt 0.000000 0.500000
vt 0.750000 0.490000
vt 0.250000 0.453359
vt 0.968750 0.500000
vt 0.796822 0.485388
vt 0.289674 0.449452
vt 0.937500 0.500000
vt 0.841844 0.471731
vt 0.327822 0.437880
vt 0.906250 0.500000
vt 0.883337 0.449553
vt 0.362980 0.419087
vt 0.875000 0.500000
vt 0.919706 0.419706
vt 0.393797 0.393797
vt 0.843750 0.500000
vt 0.949553 0.383337
vt 0.419087 0.362980
vt 0.812500 0.500000
vt 0.971731 0.341844
vt 0.437880 0.327822
vt 0.781250 0.500000
vt 0.985388 0.296822
vt 0.449452 0.289674
vt 0.750000 0.500000
vt 0.990000 0.250000
vt 0.453359 0.250000
vt 0.718750 0.500000
vt 0.985388 0.203178
vt 0.449452 0.210327
vt 0.687500 0.500000
vt 0.971731 0.158156
vt 0.437880 0.172178
vt 0.656250 0.500000
vt 0.949553 0.116663
vt 0.419087 0.137020
vt 0.625000 0.500000
vt 0.919706 0.080294
vt 0.393797 0.106203
vt 0.593750 0.500000
vt 0.883337 0.050447
vt 0.362980 0.080913
vt 0.562500 0.500000
vt 0.841844 0.028269
vt 0.327822 0.062120
vt 0.531250 0.500000
vt 0.796822 0.014612
vt 0.289674 0.050548
vt 0.500000 0.500000
vt 0.750000 0.010000
vt 0.250000 0.046641
vt 0.468750 0.500000
vt 0.703178 0.014612
vt 0.210327 0.050548
vt 0.437500 0.500000
vt 0.658156 0.028269
vt 0.172178 0.062120
vt 0.406250 0.500000
vt 0.616663 0.050447
vt 0.137020 0.080913
vt 0.375000 0.500000
vt 0.580294 0.080294
vt 0.106203 0.106203
vt 0.343750 0.500000
vt 0.550447 0.116663
vt 0.080913 0.137020
vt 0.312500 0.500000
vt 0.528269 0.158156
vt 0.062120 0.172178
vt 0.281250 0.500000
vt 0.514612 0.203178
vt 0.050548 0.210327
vt 0.250000 0.500000
vt 0.510000 0.250000
vt 0.046641 0.250000
vt 0.218750 0.500000
vt 0.514612 0.296822
vt 0.050548 0.289673
vt 0.187500 0.500000
vt 0.528269 0.341844
vt 0.062120 0.327822
vt 0.156250 0.500000
vt 0.550447 0.383337
vt 0.080913 0.362981
vt 0.125000 0.500000
vt 0.580294 0.419706
vt 0.106203 0.393797
vt 0.093750 0.500000
vt 0.616663 0.449553
vt 0.137020 0.419087
vt 0.062500 0.500000
vt 0.658156 0.471731
vt 0.172178 0.437880
vt 0.031250 0.500000
vt 0.703178 0.485388
vt 0.210327 0.449452
vt 0.968750 1.000000
vt 0.296822 0.485388
vt 1.000000 1.000000
vt 0.000000 1.000000
vt 0.250000 0.490000
vt 0.937500 1.000000
vt 0.341844 0.471731
vt 0.906250 1.000000
vt 0.383337 0.449553
vt 0.875000 1.000000
vt 0.419706 0.419706
vt 0.843750 1.000000
vt 0.449553 0.383337
vt 0.812500 1.000000
vt 0.471731 0.341844
vt 0.781250 1.000000
vt 0.485388 0.296822
vt 0.750000 1.000000
vt 0.490000 0.250000
vt 0.718750 1.000000
vt 0.485388 0.203178
vt 0.687500 1.000000
vt 0.471731 0.158156
vt 0.656250 1.000000
vt 0.449553 0.116663
vt 0.625000 1.000000
vt 0.419706 0.080294
vt 0.593750 1.000000
vt 0.383337 0.050447
vt 0.562500 1.000000
vt 0.341844 0.028269
vt 0.531250 1.000000
vt 0.296822 0.014612
vt 0.500000 1.000000
vt 0.250000 0.010000
vt 0.468750 1.000000
vt 0.203178 0.014612
vt 0.437500 1.000000
vt 0.158156 0.028269
vt 0.406250 1.000000
vt 0.116663 0.050447
vt 0.375000 1.000000
vt 0.080294 0.080294
vt 0.343750 1.000000
vt 0.050447 0.116663
vt 0.312500 1.000000
vt 0.028269 0.158156
vt 0.281250 1.000000
vt 0.014612 0.203178
vt 0.250000 1.000000
vt 0.010000 0.250000
vt 0.218750 1.000000
vt 0.014612 0.296822
vt 0.187500 1.000000
vt 0.028269 0.341844
vt 0.156250 1.000000
vt 0.050447 0.383337
vt 0.125000 1.000000
vt 0.080294 0.419706
vt 0.093750 1.000000
vt 0.116663 0.449553
vt 0.062500 1.000000
vt 0.158156 0.471731
vt 0.031250 1.000000
vt 0.203178 0.485388
vt 0.289674 0.449452
vt 0.250000 0.453359
vt 0.327822 0.437880
vt 0.362980 0.419087
vt 0.393797 0.393797
vt 0.419087 0.362980
vt 0.437880 0.327822
vt 0.449452 0.289674
vt 0.453359 0.250000
vt 0.449452 0.210327
vt 0.437880 0.172178
vt 0.419087 0.137020
vt 0.393797 0.106203
vt 0.362980 0.080913
vt 0.327822 0.062120
vt 0.289674 0.050548
vt 0.250000 0.046641
vt 0.210327 0.050548
vt 0.172178 0.062120
vt 0.137020 0.080913
vt 0.106203 0.106203
vt 0.080913 0.137020
vt 0.062120 0.172178
vt 0.050548 0.210327
vt 0.046641 0.250000
vt 0.050548 0.289673
vt 0.062120 0.327822
vt 0.080913 0.362981
vt 0.106203 0.393797
vt 0.137020 0.419087
vt 0.172178 0.437880
vt 0.210327 0.449452
s 0
f 1/1/1 66/100/1 65/98/1 3/5/1
f 3/5/2 65/98/2 67/103/2 5/8/2
f 5/8/3 67/103/3 68/105/3 7/11/3
f 7/11/4 68/105/4 69/107/4 9/14/4
f 9/14/5 69/107/5 70/109/5 11/17/5
f 11/17/6 70/109/6 71/111/6 13/20/6
f 13/20/7 71/111/7 72/113/7 15/23/7
f 15/23/8 72/113/8 73/115/8 17/26/8
f 17/26/9 73/115/9 74/117/9 19/29/9
f 19/29/10 74/117/10 75/119/10 21/32/10
f 21/32/11 75/119/11 76/121/11 23/35/11
f 23/35/12 76/121/12 77/123/12 25/38/12
f 25/38/13 77/123/13 78/125/13 27/41/13
f 27/41/14 78/125/14 79/127/14 29/44/14
f 29/44/15 79/127/15 80/129/15 31/47/15
f 31/47/16 80/129/16 81/131/16 33/50/16
f 33/50/17 81/131/17 82/133/17 35/53/17
f 35/53/18 82/133/18 83/135/18 37/56/18
f 37/56/19 83/135/19 84/137/19 39/59/19
f 39/59/20 84/137/20 85/139/20 41/62/20
f 41/62/21 85/139/21 86/141/21 43/65/21
f 43/65/22 86/141/22 87/143/22 45/68/22
f 45/68/23 87/143/23 88/145/23 47/71/23
f 47/71/24 88/145/24 89/147/24 49/74/24
f 49/74/25 89/147/25 90/149/25 51/77/25
f 51/77/26 90/149/26 91/151/26 53/80/26
f 53/80/27 91/151/27 92/153/27 55/83/27
f 55/83/28 92/153/28 93/155/28 57/86/28
f 57/86/29 93/155/29 94/157/29 59/89/29
f 59/89/30 94/157/30 95/159/30 61/92/30
f 30/46/31 28/43/31 110/176/31 111/177/31
f 61/92/32 95/159/32 96/161/32 63/95/32
f 63/95/33 96/161/33 66/101/33 1/2/33
f 1/3/34 3/6/34 5/9/34 7/12/34 9/15/34 11/18/34 13/21/34 15/24/34 17/27/34 19/30/34 21/33/34 23/36/34 25/39/34 27/42/34 29/45/34 31/48/34 33/51/34 35/54/34 37/57/34 39/60/34 41/63/34 43/66/34 45/69/34 47/72/34 49/75/34 51/78/34 53/81/34 55/84/34 57/87/34 59/90/34 61/93/34 63/96/34
f 2/4/35 4/7/35 65/99/35 66/102/35
f 4/7/35 6/10/35 67/104/35 65/99/35
f 6/10/35 8/13/35 68/106/35 67/104/35
f 8/13/35 10/16/35 69/108/35 68/106/35
f 10/16/35 12/19/35 70/110/35 69/108/35
f 12/19/35 14/22/35 71/112/35 70/110/35
f 14/22/35 16/25/35 72/114/35 71/112/35
f 16/25/35 18/28/35 73/116/35 72/114/35
f 18/28/35 20/31/35 74/118/35 73/116/35
f 20/31/35 22/34/35 75/120/35 74/118/35
f 22/34/35 24/37/35 76/122/35 75/120/35
f 24/37/35 26/40/35 77/124/35 76/122/35
f 26/40/35 28/43/35 78/126/35 77/124/35
f 28/43/35 30/46/35 79/128/35 78/126/35
f 30/46/35 32/49/35 80/130/35 79/128/35
f 32/49/35 34/52/35 81/132/35 80/130/35
f 34/52/35 36/55/35 82/134/35 81/132/35
f 36/55/35 38/58/35 83/136/35 82/134/35
f 38/58/35 40/61/35 84/138/35 83/136/35
f 40/61/35 42/64/35 85/140/35 84/138/35
f 42/64/35 44/67/35 86/142/35 85/140/35
f 44/67/35 46/70/35 87/144/35 86/142/35
f 46/70/35 48/73/35 88/146/35 87/144/35
f 48/73/35 50/76/35 89/148/35 88/146/35
f 50/76/35 52/79/35 90/150/35 89/148/35
f 52/79/35 54/82/35 91/152/35 90/150/35
f 54/82/35 56/85/35 92/154/35 91/152/35
f 56/85/35 58/88/35 93/156/35 92/154/35
f 58/88/35 60/91/35 94/158/35 93/156/35
f 60/91/35 62/94/35 95/160/35 94/158/35
f 62/94/35 64/97/35 96/162/35 95/160/35
f 64/97/35 2/4/35 66/102/35 96/162/35
f 97/163/35 98/164/35 128/194/35 127/193/35 126/192/35 125/191/35 124/190/35 123/189/35 122/188/35 121/187/35 120/186/35 119/185/35 118/184/35 117/183/35 116/182/35 115/181/35 114/180/35 113/179/35 112/178/35 111/177/35 110/176/35 109/175/35 108/174/35 107/173/35 106/172/35 105/171/35 104/170/35 103/169/35 102/168/35 101/167/35 100/166/35 99/165/35
f 4/7/36 2/4/36 98/164/36 97/163/36
f 58/88/37 56/85/37 124/190/37 125/191/37
f 32/49/38 30/46/38 111/177/38 112/178/38
f 6/10/39 4/7/39 97/163/39 99/165/39
f 60/91/40 58/88/40 125/191/40 126/192/40
f 34/52/41 32/49/41 112/178/41 113/179/41
f 8/13/42 6/10/42 99/165/42 100/166/42
f 62/94/43 60/91/43 126/192/43 127/193/43
f 36/55/44 34/52/44 113/179/44 114/180/44
f 10/16/45 8/13/45 100/166/45 101/167/45
f 64/97/46 62/94/46 127/193/46 128/194/46
f 38/58/47 36/55/47 114/180/47 115/181/47
f 12/19/48 10/16/48 101/167/48 102/168/48
f 2/4/49 64/97/49 128/194/49 98/164/49
f 40/61/50 38/58/50 115/181/50 116/182/50
f 14/22/51 12/19/51 102/168/51 103/169/51
f 42/64/52 40/61/52 116/182/52 117/183/52
f 16/25/53 14/22/53 103/169/53 104/170/53
f 44/67/54 42/64/54 117/183/54 118/184/54
f 18/28/55 16/25/55 104/170/55 105/171/55
f 46/70/56 44/67/56 118/184/56 119/185/56
f 20/31/57 18/28/57 105/171/57 106/172/57
f 48/73/58 46/70/58 119/185/58 120/186/58
f 22/34/59 20/31/59 106/172/59 107/173/59
f 50/76/60 48/73/60 120/186/60 121/187/60
f 24/37/61 22/34/61 107/173/61 108/174/61
f 52/79/62 50/76/62 121/187/62 122/188/62
f 26/40/63 24/37/63 108/174/63 109/175/63
f 54/82/64 52/79/64 122/188/64 123/189/64
f 28/43/65 26/40/65 109/175/65 110/176/65
f 56/85/66 54/82/66 123/189/66 124/190/66
