# Blender 3.5.0
# www.blender.org
o RD_Gay
v 32.569221 0.576474 -23.059046
v 32.569221 -0.000000 0.000000
v 32.569221 0.576476 0.000000
v 32.569221 -0.000002 -23.059046
v 55.628021 -0.000002 -23.059046
v 55.628021 0.576474 -23.059046
v 35.451599 0.576475 -20.176664
v 35.451599 0.576476 0.000000
v 35.451599 0.288238 0.000000
v 52.745640 0.288238 0.000000
v 55.628021 -0.000000 0.000000
v 55.628021 0.576476 0.000000
v 55.628021 0.288238 -2.882380
v 55.628021 0.288236 -20.125645
v 55.628021 0.288236 -20.176664
v 55.628021 0.576475 -20.176664
v 35.451599 0.288236 -20.176664
v 35.502613 0.288238 0.000000
v 52.745640 0.288238 -2.882380
v 52.745640 0.576476 -2.882380
v 55.628021 0.576476 -2.882380
v 52.745640 0.576476 0.000000
vn -1.0000 -0.0000 -0.0000
vn -0.0000 -0.0000 -1.0000
vn -0.0000 1.0000 -0.0000
vn -0.0000 -0.0000 1.0000
vn 1.0000 -0.0000 -0.0000
vn -0.0000 -1.0000 -0.0000
vn 1.0000 -0.0021 -0.0000
vn -0.0000 -0.0000 -0.0000
vt -13.333300 0.333333
vt 0.000000 0.333333
vt 0.000000 13.333300
vt 0.000000 0.000000
vt 0.000000 0.000000
vt 0.000000 0.333333
vt -13.333300 0.000000
vt 0.000000 0.000000
vt 0.000000 13.333300
vt -13.333300 0.000000
vt -13.333300 13.333300
vt 13.333300 0.000000
vt -13.333300 0.333333
vt 13.333300 0.333333
vt 13.333300 13.333300
vt 1.666670 11.666700
vt 1.666670 0.333333
vt 11.666700 0.333333
vt 1.666670 0.000000
vt 1.666670 0.333333
vt 0.000000 0.333333
vt 5.000000 0.000000
vt 0.000000 0.166667
vt 1.666670 0.166667
vt 35.000000 0.000000
vt 0.000000 0.166667
vt 11.666700 0.166667
vt 13.333300 0.000000
vt 0.000000 0.000000
vt -13.333300 0.000000
vt 13.333300 0.000000
vt 13.333300 0.333333
vt 0.000000 0.333333
vt -13.333300 0.166667
vt 1.666670 0.166667
vt 40.000000 5.000000
vt 11.637200 0.166667
vt 40.000000 34.911499
vt 11.666700 0.166667
vt 13.333300 0.166667
vt 40.000000 35.000000
vt 11.666700 0.333333
vt 13.333300 11.666700
vt 13.333300 0.333333
vt 1.666670 0.166667
vt 5.000000 35.000000
vt 11.666700 0.166667
vt 1.696180 0.166667
vt 5.088540 0.000000
vt 35.000000 5.000000
vt -11.666700 0.166667
vt -1.666670 0.166667
vt -11.666700 0.333333
vt 11.666700 1.666670
vt -1.666670 0.333333
vt -13.333300 0.333333
vt 13.333300 1.666670
vt 1.666670 0.333333
vt 11.666700 0.000000
vt 0.000000 0.333333
vt 11.666700 0.333333
s 0
f 1/1/1 2/4/1 3/6/1
f 2/4/1 1/1/1 4/7/1
f 1/2/2 5/10/2 4/8/2
f 5/10/2 1/2/2 6/13/2
f 1/3/3 7/16/3 6/15/3
f 1/3/3 8/19/3 7/16/3
f 8/19/3 1/3/3 3/5/3
f 3/6/4 9/24/4 8/20/4
f 2/4/4 9/24/4 3/6/4
f 9/24/4 2/4/4 10/27/4
f 11/28/4 10/27/4 2/4/4
f 10/27/4 11/28/4 12/32/4
f 11/29/5 13/35/5 12/33/5
f 13/35/5 11/29/5 5/12/5
f 2/4/6 5/11/6 11/30/6
f 5/11/6 2/4/6 4/9/6
f 13/35/5 5/12/5 14/37/5
f 14/37/7 5/12/7 15/39/7
f 15/39/5 5/12/5 16/42/5
f 16/42/5 5/12/5 6/14/5
f 6/15/3 7/16/3 16/43/3
f 17/45/4 16/44/4 7/17/4
f 16/44/4 17/45/4 15/40/4
f 17/46/3 18/49/3 15/41/3
f 18/49/3 17/46/3 9/22/3
f 17/47/5 8/21/5 9/23/5
f 8/21/5 17/47/5 7/18/5
f 9/24/2 10/27/2 18/48/2
f 19/50/3 18/49/3 10/25/3
f 15/41/3 18/49/3 19/50/3
f 15/41/3 19/50/3 13/36/3
f 20/53/2 13/34/2 19/51/2
f 13/34/2 20/53/2 21/56/2
f 20/54/3 12/31/3 21/57/3
f 12/31/3 20/54/3 22/59/3
f 20/55/1 10/26/1 22/60/1
f 10/26/1 20/55/1 19/52/1
f 10/27/4 12/32/4 22/61/4
f 21/58/5 12/33/5 13/35/5
f 15/41/8 13/36/8 14/38/8
