# Blender 3.5.0
# www.blender.org
o RT_Intersect
v 90.144043 0.000000 0.000000
v 87.261665 0.288238 0.000000
v 67.085007 0.000000 0.000000
v 90.144043 0.576476 0.000000
v 90.144043 0.288238 -2.882380
v 90.144043 -0.000002 -23.059044
v 67.085007 -0.000002 -23.059044
v 67.085007 0.288238 -2.882380
v 67.085007 0.576476 -2.882380
v 67.085007 0.576476 0.000000
v 69.967384 0.288238 0.000000
v 69.967384 0.288238 -2.882380
v 69.967384 0.288237 -20.176662
v 69.967384 0.288236 -23.059044
v 87.261665 0.288236 -23.059044
v 87.261665 0.288238 -2.882380
v 87.261665 0.576476 -2.882380
v 87.261665 0.576476 0.000000
v 90.144043 0.576476 -2.882380
v 87.261665 0.288237 -20.176662
v 90.144043 0.288237 -20.176662
v 90.144043 0.576475 -20.176662
v 90.144043 0.576474 -23.059044
v 67.085007 0.576474 -23.059044
v 67.085007 0.288237 -20.176662
v 69.967384 0.576475 -20.176662
v 67.085007 0.576475 -20.176662
v 69.967384 0.576474 -23.059044
v 69.967384 0.576476 -2.882380
v 69.967384 0.576476 0.000000
v 87.261665 0.576474 -23.059044
v 87.261665 0.576475 -20.176662
vn -0.0000 -0.0000 1.0000
vn 1.0000 -0.0000 -0.0000
vn -0.0000 -1.0000 -0.0000
vn -1.0000 -0.0000 -0.0000
vn -0.0000 1.0000 -0.0000
vn -0.0000 -0.0000 -0.0000
vn -0.0000 -0.0000 -1.0000
vt 13.333300 0.000000
vt 0.000000 0.000000
vt -13.333300 0.000000
vt 35.000000 0.000000
vt 0.000000 0.166667
vt 11.666700 0.166667
vt 0.000000 0.000000
vt 13.333300 0.333333
vt 13.333300 0.000000
vt 0.000000 0.333333
vt -13.333300 0.166667
vt 40.000000 5.000000
vt 1.666670 0.166667
vt -13.333300 13.333300
vt 13.333300 0.000000
vt -13.333300 0.000000
vt 0.000000 13.333300
vt 0.000000 0.000000
vt -13.333300 0.000000
vt -1.666670 0.166667
vt 0.000000 5.000000
vt 0.000000 0.166667
vt -1.666670 0.333333
vt 0.000000 0.333333
vt 0.000000 1.666670
vt 0.000000 0.000000
vt 0.000000 0.333333
vt 5.000000 0.000000
vt 1.666670 0.166667
vt 0.000000 0.166667
vt 5.000000 5.000000
vt -1.666670 0.166667
vt 1.666670 0.166667
vt 5.000000 35.000000
vt 1.666670 0.166667
vt 11.666700 0.166667
vt 5.000000 40.000000
vt 13.333300 0.166667
vt -1.666670 0.166667
vt -11.666700 0.166667
vt -13.333300 0.166667
vt 35.000000 40.000000
vt -1.666670 0.166667
vt -11.666700 0.166667
vt 35.000000 5.000000
vt -1.666670 0.333333
vt 11.666700 1.666670
vt -11.666700 0.333333
vt 0.000000 0.333333
vt 11.666700 0.333333
vt 11.666700 0.000000
vt 13.333300 1.666670
vt 1.666670 0.333333
vt -13.333300 0.333333
vt -11.666700 0.166667
vt 11.666700 0.166667
vt 35.000000 35.000000
vt 40.000000 35.000000
vt 11.666700 0.166667
vt 13.333300 0.166667
vt 11.666700 0.333333
vt 13.333300 0.333333
vt 13.333300 11.666700
vt 13.333300 0.333333
vt -13.333300 0.333333
vt 13.333300 13.333300
vt 0.000000 13.333300
vt 0.000000 0.333333
vt -13.333300 0.333333
vt 0.000000 35.000000
vt 0.000000 0.166667
vt -11.666700 0.166667
vt 1.666670 0.333333
vt 1.666670 11.666700
vt 11.666700 0.333333
vt 0.000000 0.333333
vt 0.000000 11.666700
vt -11.666700 0.333333
vt 1.666670 13.333300
vt 13.333300 0.333333
vt -1.666670 0.333333
vt -1.666670 0.333333
vt 1.666670 1.666670
vt 1.666670 0.333333
vt 1.666670 0.000000
vt 1.666670 0.333333
vt 0.000000 0.333333
vt -11.666700 0.333333
vt -13.333300 0.333333
vt 11.666700 13.333300
vt -11.666700 0.333333
vt 11.666700 0.333333
vt 11.666700 11.666700
s 0
f 1/1/1 2/6/1 3/7/1
f 2/6/1 1/1/1 4/8/1
f 1/2/2 5/13/2 4/10/2
f 5/13/2 1/2/2 6/15/2
f 3/7/3 6/14/3 1/3/3
f 6/14/3 3/7/3 7/17/3
f 3/7/4 8/20/4 7/19/4
f 3/7/4 9/23/4 8/20/4
f 9/23/4 3/7/4 10/27/4
f 3/7/1 11/29/1 10/27/1
f 11/29/1 3/7/1 2/6/1
f 2/4/5 12/31/5 11/28/5
f 12/31/5 2/4/5 13/34/5
f 13/34/5 2/4/5 14/37/5
f 14/37/5 2/4/5 15/42/5
f 15/42/6 2/4/6 16/45/6
f 2/5/4 17/46/4 16/43/4
f 17/46/4 2/5/4 18/49/4
f 2/6/1 4/8/1 18/50/1
f 4/9/5 17/47/5 18/51/5
f 17/47/5 4/9/5 19/52/5
f 19/53/2 4/10/2 5/13/2
f 5/11/7 17/48/7 19/54/7
f 17/48/7 5/11/7 16/44/7
f 5/12/5 20/57/5 16/45/5
f 20/57/5 5/12/5 21/58/5
f 5/13/2 6/15/2 21/59/2
f 21/59/2 6/15/2 22/61/2
f 22/61/2 6/15/2 23/64/2
f 6/16/7 15/40/7 23/65/7
f 15/40/7 6/16/7 14/39/7
f 7/18/7 14/39/7 6/16/7
f 14/39/7 7/18/7 24/68/7
f 7/19/4 25/72/4 24/69/4
f 7/19/4 8/20/4 25/72/4
f 12/31/5 25/70/5 8/21/5
f 25/70/5 12/31/5 13/34/5
f 26/73/1 25/71/1 13/35/1
f 25/71/1 26/73/1 27/76/1
f 26/74/5 24/67/5 27/77/5
f 24/67/5 26/74/5 28/79/5
f 26/75/2 14/38/2 28/80/2
f 14/38/2 26/75/2 13/36/2
f 14/39/7 24/68/7 28/81/7
f 24/69/4 25/72/4 27/78/4
f 9/24/7 12/32/7 8/22/7
f 12/32/7 9/24/7 29/82/7
f 9/25/5 30/85/5 29/83/5
f 30/85/5 9/25/5 10/26/5
f 10/27/1 11/29/1 30/86/1
f 12/33/2 30/87/2 11/30/2
f 30/87/2 12/33/2 29/84/2
f 23/65/7 15/40/7 31/88/7
f 20/55/4 31/89/4 15/41/4
f 31/89/4 20/55/4 32/91/4
f 20/56/1 22/62/1 32/92/1
f 22/62/1 20/56/1 21/60/1
f 22/63/5 31/90/5 32/93/5
f 31/90/5 22/63/5 23/66/5
f 15/42/6 16/45/6 20/57/6
